<svg width="143" height="153" viewBox="0 0 143 153" fill="none" xmlns="http://www.w3.org/2000/svg">
<circle cx="74.5" cy="75.5" r="47.5" fill="#9CB240"/>
<g filter="url(#filter0_d_409_63)">
<path fill-rule="evenodd" clip-rule="evenodd" d="M99.0201 50.8841C101.57 52.0619 102.861 54.6936 101.906 56.7623C100.95 58.8311 98.1091 59.555 95.5594 58.3754C93.0097 57.1959 91.718 54.5633 92.6737 52.4972C93.6294 50.431 96.4708 49.7063 99.0201 50.8841Z" fill="#130003"/>
<path fill-rule="evenodd" clip-rule="evenodd" d="M90.2042 53.4135C91.6355 55.8293 91.2069 58.7296 89.2463 59.891C87.2857 61.0524 84.5361 60.0355 83.1047 57.6192C81.6734 55.2029 82.102 52.303 84.0626 51.1417C86.0232 49.9803 88.7729 50.9985 90.2042 53.4135Z" fill="#130003"/>
<path fill-rule="evenodd" clip-rule="evenodd" d="M80.1278 51.8496C81.5591 54.2659 81.13 57.1658 79.1699 58.3276C77.2097 59.4894 74.4596 58.4721 73.0283 56.0558C71.597 53.6395 72.0256 50.7392 73.9862 49.5778C75.9468 48.4164 78.696 49.4337 80.1278 51.8496Z" fill="#130003"/>
<path fill-rule="evenodd" clip-rule="evenodd" d="M70.6301 53.7025C72.0614 56.1183 71.6324 59.0187 69.6722 60.1801C67.712 61.3414 64.962 60.3246 63.5306 57.9083C62.0993 55.492 62.5279 52.5921 64.4885 51.4307C66.4491 50.2693 69.1983 51.2866 70.6301 53.7025Z" fill="#130003"/>
<path fill-rule="evenodd" clip-rule="evenodd" d="M61.7633 58.114C64.1339 59.6189 65.0657 62.3987 63.8445 64.3225C62.6232 66.2463 59.7109 66.5854 57.3403 65.08C54.9697 63.5747 54.0375 60.7953 55.2569 58.8715C56.4764 56.9477 59.3922 56.6086 61.7633 58.114Z" fill="#130003"/>
<path fill-rule="evenodd" clip-rule="evenodd" d="M55.9214 66.2511C58.6072 67.0712 60.2446 69.5029 59.5793 71.6821C58.9139 73.8612 56.1966 74.9623 53.5108 74.1427C50.825 73.3231 49.1871 70.8908 49.8529 68.7113C50.5187 66.5317 53.2356 65.4306 55.9214 66.2511Z" fill="#130003"/>
<path fill-rule="evenodd" clip-rule="evenodd" d="M53.4759 75.1392C56.2415 74.6516 58.8049 76.0723 59.2021 78.3162C59.5993 80.56 57.679 82.7755 54.9139 83.2649C52.1487 83.7543 49.5848 82.3318 49.1876 80.088C48.7905 77.8441 50.7107 75.6286 53.4759 75.1392Z" fill="#130003"/>
<path fill-rule="evenodd" clip-rule="evenodd" d="M55.0379 84.6918C57.1151 82.8021 60.0425 82.6368 61.5758 84.3221C63.1091 86.0074 62.668 88.906 60.5908 90.7939C58.5136 92.6818 55.5863 92.8494 54.053 91.164C52.5197 89.4787 52.9607 86.5815 55.0379 84.6918Z" fill="#130003"/>
<path fill-rule="evenodd" clip-rule="evenodd" d="M67.5906 91.9819C69.674 93.8667 70.1208 96.7639 68.5916 98.4537C67.0623 100.143 64.1349 99.9847 62.0528 98.099C59.9707 96.2134 59.5226 93.317 61.0519 91.6272C62.5812 89.9375 65.5086 90.0953 67.5906 91.9819Z" fill="#130003"/>
<path fill-rule="evenodd" clip-rule="evenodd" d="M78.5935 93.5453C80.6769 95.4301 81.1237 98.3273 79.5944 100.017C78.0651 101.707 75.1382 101.549 73.0561 99.6625C70.9741 97.7764 70.5255 94.8804 72.0548 93.1907C73.5841 91.5009 76.5115 91.6609 78.5935 93.5453Z" fill="#130003"/>
<path fill-rule="evenodd" clip-rule="evenodd" d="M87.9179 89.5394C90.5775 90.4388 92.1431 92.9181 91.4135 95.0768C90.6839 97.2356 87.9356 98.2564 85.2751 97.357C82.6145 96.4576 81.0498 93.9784 81.7794 91.8196C82.509 89.6609 85.2573 88.6405 87.9179 89.5394Z" fill="#130003"/>
<path fill-rule="evenodd" clip-rule="evenodd" d="M102.673 96.5406C100.548 98.3775 97.6193 98.4688 96.1273 96.7454C94.6352 95.0219 95.1521 92.1353 97.2754 90.2984C99.3987 88.4614 102.329 88.3701 103.82 90.0936C105.312 91.817 104.797 94.7054 102.673 96.5406Z" fill="#130003"/>
<path fill-rule="evenodd" clip-rule="evenodd" d="M94.6158 107.102C93.2651 109.564 90.5509 110.672 88.5531 109.575C86.5553 108.479 86.0304 105.595 87.3811 103.133C88.7317 100.671 91.4464 99.5637 93.4442 100.659C95.442 101.755 95.9655 104.64 94.6158 107.102Z" fill="#130003"/>
<path fill-rule="evenodd" clip-rule="evenodd" d="M82.2669 111.86C80.5954 114.116 77.7562 114.846 75.925 113.49C74.0938 112.133 73.9648 109.204 75.6364 106.948C77.308 104.691 80.1476 103.962 81.9788 105.318C83.81 106.675 83.939 109.602 82.2669 111.86Z" fill="#130003"/>
<path fill-rule="evenodd" clip-rule="evenodd" d="M69.596 111.856C67.1376 113.214 64.2519 112.698 63.1499 110.704C62.0479 108.709 63.1499 105.991 65.6056 104.633C68.0614 103.276 70.9497 103.791 72.0517 105.786C73.1537 107.781 72.0531 110.498 69.596 111.856Z" fill="#130003"/>
<path fill-rule="evenodd" clip-rule="evenodd" d="M57.3328 107.713C54.581 108.273 51.9816 106.915 51.5259 104.683C51.0703 102.451 52.9347 100.186 55.687 99.6266C58.4393 99.0672 61.0377 100.425 61.4939 102.656C61.95 104.888 60.0847 107.153 57.3328 107.713Z" fill="#130003"/>
<path fill-rule="evenodd" clip-rule="evenodd" d="M45.8556 100.463C43.3076 99.2822 42.0195 96.6486 42.9778 94.5812C43.9362 92.5138 46.7785 91.7957 49.3264 92.977C51.8744 94.1583 53.1625 96.7918 52.2042 98.8588C51.2458 100.926 48.4048 101.644 45.8556 100.463Z" fill="#130003"/>
<path fill-rule="evenodd" clip-rule="evenodd" d="M39.8332 89.2496C37.7054 87.4179 37.1842 84.5327 38.6705 82.8057C40.1568 81.0787 43.0872 81.1656 45.2158 82.9954C47.3445 84.8252 47.8649 87.7123 46.3786 89.4393C44.8923 91.1663 41.9618 91.0816 39.8332 89.2496Z" fill="#130003"/>
<path fill-rule="evenodd" clip-rule="evenodd" d="M38.0096 77.7541C35.8818 75.9225 35.3605 73.0372 36.8468 71.3102C38.3331 69.5832 41.2641 69.6679 43.3922 71.4995C45.5204 73.3311 46.0417 76.2168 44.5554 77.9438C43.0691 79.6708 40.1373 79.5862 38.0096 77.7541Z" fill="#130003"/>
<path fill-rule="evenodd" clip-rule="evenodd" d="M38.6354 65.5166C37.5441 62.9288 38.3619 60.1131 40.4613 59.2279C42.5606 58.3427 45.1476 59.7226 46.2389 62.31C47.3302 64.8974 46.5128 67.7131 44.4131 68.5987C42.3133 69.4844 39.7268 68.104 38.6354 65.5166Z" fill="#130003"/>
<path fill-rule="evenodd" clip-rule="evenodd" d="M43.6737 56.1348C42.5823 53.5474 43.3997 50.7326 45.5008 49.846C47.602 48.9595 50.1871 50.3403 51.278 52.9281C52.3689 55.5159 51.552 58.3312 49.4522 59.2164C47.3524 60.1016 44.7646 58.7226 43.6737 56.1348Z" fill="#130003"/>
<path fill-rule="evenodd" clip-rule="evenodd" d="M51.0941 46.6136C51.7927 43.8937 54.1483 42.1481 56.3553 42.7128C58.5624 43.2775 59.7854 45.9438 59.0868 48.6642C58.3882 51.3846 56.0326 53.1298 53.826 52.565C51.6194 52.0003 50.3959 49.3336 51.0941 46.6136Z" fill="#130003"/>
<path fill-rule="evenodd" clip-rule="evenodd" d="M60.2731 41.6334C60.9717 38.913 63.3268 37.1679 65.5343 37.7326C67.7418 38.2973 68.9639 40.9641 68.2658 43.684C67.5676 46.4039 65.2116 48.1495 63.0045 47.5848C60.7975 47.0201 59.5745 44.3533 60.2731 41.6334Z" fill="#130003"/>
<path fill-rule="evenodd" clip-rule="evenodd" d="M70.6652 38.4981C72.2362 36.1705 75.0408 35.3163 76.9296 36.5921C78.8184 37.8678 79.0763 40.7872 77.5058 43.1153C75.9353 45.4434 73.1307 46.2971 71.2419 45.0214C69.3531 43.7456 69.0947 40.8267 70.6652 38.4981Z" fill="#130003"/>
<path fill-rule="evenodd" clip-rule="evenodd" d="M81.2731 37.382C83.486 35.6532 86.4151 35.706 87.8203 37.5017C89.2255 39.2974 88.5677 42.1561 86.3548 43.8849C84.142 45.6136 81.2129 45.5609 79.8077 43.7652C78.4025 41.9695 79.0612 39.1112 81.2731 37.382Z" fill="#130003"/>
<path fill-rule="evenodd" clip-rule="evenodd" d="M91.863 41.0691C94.6202 40.5372 97.2058 41.9171 97.6384 44.1543C98.0711 46.3915 96.1867 48.6376 93.4273 49.1708C90.6679 49.7041 88.0841 48.3224 87.6519 46.0852C87.2197 43.848 89.1054 41.601 91.863 41.0691Z" fill="#130003"/>
<path fill-rule="evenodd" clip-rule="evenodd" d="M89.9091 45.6792C90.0875 45.669 90.2649 45.7127 90.4182 45.8045C90.5715 45.8963 90.6938 46.0321 90.7692 46.1941C90.8445 46.3562 90.8695 46.5371 90.8408 46.7135C90.8122 46.8899 90.7313 47.0537 90.6085 47.1836C90.4858 47.3135 90.3269 47.4036 90.1524 47.4422C89.9779 47.4808 89.7958 47.4661 89.6298 47.4001C89.4637 47.334 89.3213 47.2197 89.2209 47.0718C89.1205 46.9239 89.0669 46.7493 89.0669 46.5706C89.0605 46.3407 89.1457 46.1178 89.3036 45.9507C89.4615 45.7835 89.6793 45.6859 89.9091 45.6792V45.6792Z" fill="#FFAE58"/>
<path fill-rule="evenodd" clip-rule="evenodd" d="M94.8099 51.9161C94.9676 51.9943 95.0979 52.1184 95.1837 52.272C95.2695 52.4257 95.3067 52.6017 95.2905 52.777C95.2743 52.9522 95.2055 53.1185 95.093 53.2538C94.9805 53.3892 94.8297 53.4873 94.6603 53.5353C94.491 53.5833 94.3111 53.5789 94.1443 53.5226C93.9776 53.4664 93.8317 53.361 93.726 53.2203C93.6203 53.0796 93.5597 52.9102 93.5521 52.7343C93.5445 52.5585 93.5903 52.3845 93.6836 52.2352C93.7911 52.044 93.9699 51.9031 94.1809 51.8433C94.392 51.7835 94.6181 51.8097 94.8099 51.9161V51.9161Z" fill="#FFAE58"/>
<path fill-rule="evenodd" clip-rule="evenodd" d="M84.9966 51.7122C85.1617 51.7071 85.3245 51.7513 85.4642 51.8393C85.604 51.9273 85.7143 52.055 85.781 52.2061C85.8477 52.3571 85.8678 52.5246 85.8387 52.6872C85.8097 52.8497 85.7327 52.9999 85.6178 53.1185C85.5028 53.237 85.3551 53.3186 85.1936 53.3527C85.032 53.3868 84.8639 53.3718 84.7109 53.3098C84.5578 53.2478 84.4268 53.1415 84.3345 53.0046C84.2422 52.8676 84.193 52.7062 84.193 52.5411C84.1896 52.3246 84.2724 52.1157 84.4232 51.9602C84.5739 51.8048 84.7801 51.7156 84.9966 51.7122Z" fill="#FFAE58"/>
<path fill-rule="evenodd" clip-rule="evenodd" d="M82.4354 42.91C82.5752 42.9331 82.7054 42.9957 82.8108 43.0904C82.9161 43.1852 82.9922 43.308 83.03 43.4446C83.0678 43.5811 83.0657 43.7256 83.024 43.861C82.9823 43.9964 82.9028 44.1171 82.7948 44.2087C82.6868 44.3004 82.5548 44.3592 82.4144 44.3783C82.274 44.3974 82.1311 44.3759 82.0025 44.3164C81.874 44.2569 81.7651 44.1619 81.6888 44.0425C81.6125 43.9231 81.5719 43.7844 81.5719 43.6428C81.5906 43.4317 81.6918 43.2364 81.8534 43.0993C82.015 42.9622 82.2241 42.8942 82.4354 42.91Z" fill="#FFAE58"/>
<path fill-rule="evenodd" clip-rule="evenodd" d="M75.1737 50.1749C75.3155 50.2017 75.4467 50.2684 75.552 50.367C75.6574 50.4657 75.7324 50.5923 75.7684 50.732C75.8045 50.8717 75.8 51.0188 75.7555 51.1561C75.711 51.2934 75.6284 51.4152 75.5173 51.5073C75.4062 51.5993 75.2711 51.6579 75.128 51.676C74.9848 51.6942 74.8394 51.6712 74.7088 51.6098C74.5783 51.5484 74.4678 51.4511 74.3905 51.3293C74.3132 51.2074 74.2721 51.0661 74.2721 50.9218C74.2944 50.704 74.4015 50.5036 74.5701 50.3639C74.7387 50.2242 74.9555 50.1563 75.1737 50.1749V50.1749Z" fill="#FFAE58"/>
<path fill-rule="evenodd" clip-rule="evenodd" d="M73.0097 43.5253C73.16 43.5087 73.3118 43.5381 73.4451 43.6097C73.5783 43.6813 73.6867 43.7916 73.7559 43.9261C73.825 44.0606 73.8518 44.2129 73.8325 44.3629C73.8132 44.5129 73.7489 44.6535 73.6479 44.7662C73.547 44.8788 73.4143 44.9582 73.2672 44.9937C73.1202 45.0293 72.9659 45.0194 72.8247 44.9653C72.6834 44.9112 72.5619 44.8156 72.4762 44.6909C72.3905 44.5663 72.3447 44.4186 72.3447 44.2674C72.3348 44.0809 72.3992 43.8981 72.5239 43.759C72.6485 43.6199 72.8232 43.5359 73.0097 43.5253V43.5253Z" fill="#FFAE58"/>
<path fill-rule="evenodd" clip-rule="evenodd" d="M64.9164 52.2503C65.0413 52.2821 65.1548 52.3482 65.2439 52.4413C65.333 52.5344 65.3942 52.6506 65.4205 52.7768C65.4468 52.9029 65.4372 53.0339 65.3926 53.1548C65.3481 53.2758 65.2705 53.3818 65.1687 53.4608C65.0668 53.5397 64.9449 53.5885 64.8167 53.6016C64.6885 53.6146 64.5592 53.5914 64.4435 53.5345C64.3279 53.4777 64.2305 53.3895 64.1625 53.28C64.0946 53.1705 64.0587 53.0441 64.0591 52.9152C64.0879 52.7149 64.1934 52.5336 64.3533 52.4095C64.5133 52.2855 64.7152 52.2284 64.9164 52.2503V52.2503Z" fill="#FFAE58"/>
<path fill-rule="evenodd" clip-rule="evenodd" d="M63.4606 45.6154C63.606 45.6219 63.7463 45.6709 63.864 45.7565C63.9818 45.842 64.0718 45.9602 64.1229 46.0965C64.1741 46.2327 64.1841 46.381 64.1517 46.5229C64.1193 46.6647 64.046 46.794 63.9408 46.8945C63.8356 46.9951 63.7032 47.0626 63.56 47.0885C63.4168 47.1145 63.2691 47.0979 63.1353 47.0406C63.0015 46.9834 62.8874 46.8882 62.8073 46.7667C62.7271 46.6453 62.6844 46.5029 62.6844 46.3574C62.6891 46.1561 62.7735 45.9649 62.919 45.8258C63.0645 45.6866 63.2593 45.611 63.4606 45.6154V45.6154Z" fill="#FFAE58"/>
<path d="M54.1497 52.097C54.5832 52.097 54.9347 51.7975 54.9347 51.4281C54.9347 51.0586 54.5832 50.7592 54.1497 50.7592C53.7161 50.7592 53.3646 51.0586 53.3646 51.4281C53.3646 51.7975 53.7161 52.097 54.1497 52.097Z" fill="#FFAE58"/>
<path fill-rule="evenodd" clip-rule="evenodd" d="M56.6944 59.1308C56.8744 59.104 57.0582 59.1329 57.2212 59.2137C57.3843 59.2944 57.5187 59.4231 57.6065 59.5824C57.6942 59.7418 57.7311 59.9242 57.7123 60.1051C57.6934 60.286 57.6196 60.4569 57.5008 60.5946C57.382 60.7324 57.2239 60.8305 57.0477 60.8759C56.8715 60.9212 56.6857 60.9115 56.5151 60.8481C56.3446 60.7847 56.1975 60.6707 56.0937 60.5213C55.9899 60.372 55.9342 60.1944 55.9342 60.0125C55.9192 59.795 55.9906 59.5804 56.133 59.4153C56.2753 59.2502 56.4771 59.1479 56.6944 59.1308V59.1308Z" fill="#FFAE58"/>
<path fill-rule="evenodd" clip-rule="evenodd" d="M49.2723 57.1019C49.3942 57.0565 49.5265 57.0472 49.6535 57.075C49.7805 57.1028 49.8968 57.1667 49.9885 57.2588C50.0802 57.351 50.1434 57.4677 50.1706 57.5948C50.1977 57.722 50.1877 57.8543 50.1417 57.9759C50.0956 58.0975 50.0155 58.2032 49.911 58.2805C49.8064 58.3578 49.6818 58.4033 49.5521 58.4117C49.4223 58.42 49.2929 58.3908 49.1793 58.3276C49.0657 58.2643 48.9727 58.1697 48.9115 58.0549C48.8337 57.8806 48.828 57.6826 48.8956 57.5041C48.9632 57.3256 49.0986 57.181 49.2723 57.1019V57.1019Z" fill="#FFAE58"/>
<path fill-rule="evenodd" clip-rule="evenodd" d="M44.4637 66.3189C44.6275 66.2988 44.7935 66.3291 44.9397 66.4057C45.0858 66.4822 45.2053 66.6014 45.2821 66.7475C45.3589 66.8936 45.3894 67.0595 45.3696 67.2234C45.3498 67.3872 45.2806 67.5411 45.1712 67.6647C45.0619 67.7882 44.9175 67.8756 44.7573 67.9151C44.5971 67.9547 44.4286 67.9445 44.2743 67.886C44.12 67.8275 43.9872 67.7234 43.8934 67.5876C43.7997 67.4518 43.7495 67.2907 43.7495 67.1257C43.738 66.9242 43.8066 66.7263 43.9404 66.5752C44.0742 66.424 44.2622 66.3319 44.4637 66.3189Z" fill="#FFAE58"/>
<path fill-rule="evenodd" clip-rule="evenodd" d="M51.4926 68.5078C51.6345 68.5126 51.7718 68.5591 51.8874 68.6414C52.0031 68.7237 52.0919 68.8382 52.1429 68.9706C52.1939 69.1031 52.2048 69.2476 52.1742 69.3862C52.1436 69.5248 52.0729 69.6513 51.9709 69.75C51.8689 69.8487 51.7401 69.9152 51.6005 69.9412C51.461 69.9672 51.3169 69.9515 51.1862 69.8961C51.0555 69.8408 50.944 69.7482 50.8656 69.6298C50.7872 69.5115 50.7453 69.3728 50.7452 69.2308C50.7486 69.0359 50.8292 68.8503 50.9693 68.7147C51.1095 68.5792 51.2977 68.5048 51.4926 68.5078V68.5078Z" fill="#FFAE58"/>
<path fill-rule="evenodd" clip-rule="evenodd" d="M43.5841 76.1569C43.7335 76.1338 43.8864 76.1569 44.0223 76.2232C44.1581 76.2896 44.2704 76.396 44.3439 76.5281C44.4175 76.6601 44.4488 76.8116 44.4337 76.962C44.4186 77.1124 44.3578 77.2546 44.2594 77.3694C44.161 77.4842 44.0298 77.5661 43.8835 77.6041C43.7372 77.6421 43.5827 77.6344 43.4409 77.5819C43.2991 77.5294 43.1768 77.4348 43.0904 77.3107C43.004 77.1867 42.9578 77.0391 42.9578 76.8879C42.945 76.7082 43.0036 76.5307 43.1209 76.3938C43.2381 76.257 43.4046 76.1719 43.5841 76.1569V76.1569Z" fill="#FFAE58"/>
<path fill-rule="evenodd" clip-rule="evenodd" d="M50.7759 79.4257C50.9055 79.4304 51.0309 79.4731 51.1364 79.5486C51.2419 79.624 51.3229 79.7288 51.3692 79.85C51.4156 79.9711 51.4253 80.1032 51.3971 80.2298C51.3689 80.3564 51.3041 80.4719 51.2108 80.5619C51.1174 80.652 50.9996 80.7125 50.8721 80.7361C50.7446 80.7597 50.6129 80.7452 50.4935 80.6945C50.3742 80.6438 50.2724 80.559 50.2008 80.4509C50.1292 80.3427 50.0911 80.2159 50.0911 80.0862C50.0944 79.9078 50.1685 79.7381 50.2969 79.6143C50.4253 79.4904 50.5976 79.4226 50.7759 79.4257V79.4257Z" fill="#FFAE58"/>
<path fill-rule="evenodd" clip-rule="evenodd" d="M45.6849 87.3293C45.9535 87.3293 46.1725 87.6422 46.1725 88.0283C46.1725 88.4144 45.9548 88.7274 45.6849 88.7274C45.4149 88.7274 45.1973 88.4144 45.1973 88.0283C45.1973 87.6422 45.4162 87.3293 45.6849 87.3293Z" fill="#FFAE58"/>
<path fill-rule="evenodd" clip-rule="evenodd" d="M55.0371 89.203C55.1932 89.1953 55.348 89.2347 55.4816 89.3159C55.6151 89.3971 55.7212 89.5165 55.7863 89.6586C55.8513 89.8007 55.8723 89.9591 55.8464 90.1132C55.8206 90.2674 55.7491 90.4102 55.6413 90.5234C55.5335 90.6365 55.3943 90.7148 55.2415 90.748C55.0888 90.7813 54.9296 90.768 54.7846 90.7099C54.6395 90.6518 54.5151 90.5515 54.4275 90.4221C54.34 90.2926 54.2932 90.1399 54.2933 89.9836C54.2885 89.7815 54.3642 89.5857 54.5037 89.4393C54.6431 89.293 54.835 89.208 55.0371 89.203Z" fill="#FFAE58"/>
<path fill-rule="evenodd" clip-rule="evenodd" d="M50.7913 97.5055C50.9671 97.483 51.1455 97.5146 51.3029 97.596C51.4603 97.6775 51.5891 97.8049 51.6722 97.9614C51.7553 98.1179 51.7888 98.2959 51.7682 98.4719C51.7475 98.6479 51.6738 98.8134 51.5567 98.9464C51.4397 99.0794 51.2848 99.1736 51.1129 99.2165C50.941 99.2593 50.7601 99.2487 50.5943 99.1862C50.4285 99.1236 50.2858 99.012 50.185 98.8663C50.0842 98.7205 50.0302 98.5476 50.0302 98.3704C50.0175 98.155 50.0903 97.9433 50.2328 97.7813C50.3754 97.6194 50.5761 97.5202 50.7913 97.5055V97.5055Z" fill="#FFAE58"/>
<path fill-rule="evenodd" clip-rule="evenodd" d="M66.4816 97.6785C66.6005 97.7104 66.7081 97.775 66.7922 97.8649C66.8763 97.9548 66.9335 98.0664 66.9575 98.1872C66.9814 98.308 66.9711 98.433 66.9276 98.5482C66.8842 98.6634 66.8094 98.7642 66.7117 98.839C66.6139 98.9139 66.4972 98.9599 66.3747 98.9719C66.2522 98.9839 66.1287 98.9614 66.0183 98.9068C65.908 98.8523 65.815 98.768 65.7501 98.6634C65.6852 98.5588 65.6508 98.4381 65.6509 98.315C65.6799 98.122 65.7828 97.9477 65.9377 97.829C66.0927 97.7103 66.2876 97.6563 66.4816 97.6785Z" fill="#FFAE58"/>
<path fill-rule="evenodd" clip-rule="evenodd" d="M59.7184 101.758C59.895 101.717 60.0801 101.731 60.248 101.8C60.4159 101.868 60.5583 101.988 60.6554 102.141C60.7525 102.294 60.7995 102.474 60.79 102.655C60.7804 102.836 60.7147 103.009 60.602 103.151C60.4893 103.294 60.3352 103.397 60.161 103.448C59.9868 103.498 59.8012 103.493 59.63 103.434C59.4587 103.374 59.3103 103.262 59.2052 103.115C59.1002 102.967 59.0438 102.79 59.0438 102.608C59.0233 102.407 59.0823 102.205 59.2083 102.046C59.3343 101.887 59.5174 101.784 59.7184 101.758V101.758Z" fill="#FFAE58"/>
<path fill-rule="evenodd" clip-rule="evenodd" d="M70.1541 105.717C70.3474 105.694 70.5431 105.731 70.7152 105.822C70.8873 105.913 71.0276 106.054 71.1176 106.227C71.2076 106.399 71.243 106.595 71.2191 106.788C71.1951 106.982 71.113 107.163 70.9837 107.308C70.8543 107.454 70.6837 107.557 70.4946 107.603C70.3055 107.649 70.1068 107.637 69.9248 107.568C69.7429 107.499 69.5862 107.376 69.4757 107.215C69.3652 107.055 69.3061 106.865 69.3061 106.67C69.2929 106.432 69.3746 106.197 69.5335 106.019C69.6924 105.84 69.9154 105.732 70.1541 105.717V105.717Z" fill="#FFAE58"/>
<path fill-rule="evenodd" clip-rule="evenodd" d="M77.2948 98.9759C77.8737 98.9759 78.3431 99.2888 78.3431 99.6749C78.3431 100.061 77.8737 100.374 77.2948 100.374C76.7158 100.374 76.246 100.061 76.246 99.6749C76.246 99.2888 76.7154 98.9759 77.2948 98.9759Z" fill="#FFAE58"/>
<path fill-rule="evenodd" clip-rule="evenodd" d="M81.0049 105.717C81.1552 105.71 81.304 105.749 81.4323 105.827C81.5605 105.906 81.6622 106.021 81.7244 106.158C81.7866 106.295 81.8063 106.448 81.7811 106.596C81.7559 106.744 81.6869 106.882 81.5829 106.99C81.479 107.099 81.3449 107.174 81.1979 107.206C81.0508 107.238 80.8977 107.225 80.758 107.169C80.6184 107.113 80.4987 107.017 80.4143 106.892C80.3299 106.768 80.2848 106.621 80.2846 106.47C80.2824 106.374 80.2992 106.277 80.3342 106.187C80.3692 106.097 80.4217 106.014 80.4886 105.944C80.5555 105.874 80.6355 105.818 80.7241 105.779C80.8127 105.74 80.9081 105.719 81.0049 105.717V105.717Z" fill="#FFAE58"/>
<path fill-rule="evenodd" clip-rule="evenodd" d="M88.8779 94.4784C89.0296 94.5208 89.1663 94.6047 89.2729 94.7207C89.3794 94.8366 89.4515 94.98 89.4809 95.1347C89.5104 95.2893 89.4961 95.4492 89.4396 95.5962C89.3832 95.7431 89.2868 95.8714 89.1614 95.9666C89.0359 96.0618 88.8864 96.1201 88.7297 96.1349C88.5729 96.1497 88.4151 96.1205 88.2741 96.0505C88.1331 95.9805 88.0144 95.8725 87.9314 95.7387C87.8484 95.6049 87.8044 95.4506 87.8043 95.2931C87.8431 95.0448 87.9766 94.8212 88.1768 94.6692C88.377 94.5173 88.6283 94.4489 88.8779 94.4784Z" fill="#FFAE58"/>
<path fill-rule="evenodd" clip-rule="evenodd" d="M92.3435 101.222C92.5207 101.247 92.6868 101.323 92.8221 101.44C92.9574 101.557 93.0562 101.711 93.1066 101.883C93.1571 102.055 93.1571 102.237 93.1066 102.409C93.0562 102.581 92.9575 102.735 92.8222 102.852C92.6869 102.969 92.5207 103.045 92.3435 103.07C92.1663 103.096 91.9855 103.07 91.8226 102.996C91.6597 102.921 91.5217 102.802 91.4249 102.651C91.328 102.5 91.2765 102.325 91.2765 102.146C91.2966 101.883 91.4199 101.638 91.6198 101.464C91.8196 101.291 92.0796 101.204 92.3435 101.222V101.222Z" fill="#FFAE58"/>
<path fill-rule="evenodd" clip-rule="evenodd" d="M97.6513 94.4208C97.8433 94.4444 98.0243 94.523 98.1727 94.6471C98.3211 94.7711 98.4306 94.9354 98.4879 95.1201C98.5452 95.3049 98.5479 95.5022 98.4958 95.6885C98.4436 95.8748 98.3388 96.042 98.1939 96.1701C98.0491 96.2983 97.8702 96.3819 97.679 96.4108C97.4878 96.4398 97.2922 96.413 97.1159 96.3335C96.9395 96.254 96.7899 96.1254 96.6849 95.9629C96.5799 95.8004 96.524 95.6111 96.524 95.4177C96.5423 95.1364 96.6711 94.8737 96.8822 94.687C97.0934 94.5002 97.3699 94.4045 97.6513 94.4208Z" fill="#FFAE58"/>
<path fill-rule="evenodd" clip-rule="evenodd" d="M90.9618 52.1692C86.3106 48.9271 80.5546 47.9896 74.9907 47.9896C59.8803 47.9896 47.419 60.0879 47.419 75.2682C47.419 90.4486 59.8799 102.547 74.9907 102.547C81.4617 102.561 87.7323 100.303 92.7097 96.1682L93.1928 95.7666L93.9956 96.7329L93.5125 97.1345C88.3101 101.457 81.7559 103.818 74.992 103.804C59.1879 103.804 46.1641 91.1428 46.1641 75.2691C46.1641 59.3955 59.1879 46.7338 74.992 46.7338C80.8264 46.7338 86.8084 47.7422 91.6817 51.139L92.1973 51.4981L91.4787 52.5291L90.9618 52.1692Z" fill="#130003"/>
<path fill-rule="evenodd" clip-rule="evenodd" d="M81.0405 65.8548C79.0195 66.1856 77.0835 66.9119 75.3435 67.9918C76.0205 67.165 76.9039 66.5319 77.9044 66.1566C78.9049 65.7813 79.9868 65.6772 81.0405 65.8548V65.8548ZM81.3703 71.9033C81.4767 71.9649 81.5538 71.9627 81.6021 71.8957C81.9307 72.2114 82.1842 72.1559 82.3623 71.7295C82.8508 71.8477 83.0221 71.6957 82.8761 71.2734C85.9959 72.1969 88.4379 74.7063 90.2021 78.8015C90.5434 76.4888 89.8046 74.3703 87.9857 72.4459C89.0531 72.83 90.308 74.0509 91.7505 76.1086C91.8096 74.0696 90.5161 72.1392 87.87 70.3177C89.0675 70.5863 90.6987 71.4743 92.7638 72.9818C92.2614 71.133 90.6157 69.6562 87.8266 68.5512C88.6399 68.3308 90.28 68.7797 92.7469 69.8979C92.1654 68.6015 90.6259 67.5879 88.1285 66.857C89.4926 66.7086 90.8725 66.8167 92.1968 67.1758C91.1082 66.1261 89.4143 65.5325 87.1151 65.3951C87.3767 65.0701 88.5397 64.8963 90.6042 64.8738C89.6647 64.0671 87.9563 63.8403 85.479 64.1934C85.6268 63.863 86.5003 63.5155 88.0997 63.1508C86.8526 62.608 85.202 62.7528 83.1478 63.5852C83.042 63.4044 83.6888 62.7191 85.088 61.5293C83.9376 61.4324 82.6057 62.2046 81.0924 63.8459C81.0415 62.4865 80.8774 61.6082 80.5999 61.2111C80.323 61.6091 80.159 62.4874 80.1079 63.8459C78.5939 62.2043 77.2619 61.4321 76.1117 61.5293C77.511 62.7191 78.1577 63.4044 78.0519 63.5852C75.9972 62.7525 74.3466 62.6077 73.1001 63.1508C74.6995 63.5155 75.573 63.863 75.7208 64.1934C73.2461 63.8403 71.5388 64.0668 70.5987 64.8729C72.6635 64.8969 73.8265 65.0706 74.0877 65.3942C71.7889 65.5311 70.095 66.1246 69.006 67.1749C70.3304 66.8158 71.7103 66.7077 73.0744 66.8562C70.577 67.587 69.0375 68.6006 68.4559 69.897C70.9247 68.7785 72.5648 68.3296 73.3763 68.5503C70.5869 69.655 68.9412 71.1318 68.4391 72.9809C70.5042 71.4737 72.1354 70.5857 73.3328 70.3168C70.6874 72.1393 69.394 74.0696 69.4529 76.1077C70.8947 74.0501 72.1493 72.8291 73.2167 72.445C71.3987 74.3697 70.6599 76.4882 71.0003 78.8006C72.7646 74.7054 75.2066 72.196 78.3263 71.2725C78.1786 71.6954 78.3498 71.8474 78.8401 71.7286C79.0174 72.1551 79.2708 72.2105 79.6003 71.8949C79.6486 71.9618 79.7257 71.964 79.8321 71.9024L79.3756 82.5853C77.5178 81.8623 75.6609 81.3264 73.613 81.5139C71.7801 81.6828 70.0525 82.4454 68.6926 83.686C71.2854 82.7108 73.6241 82.1163 75.4393 82.8171C80.1211 84.6253 83.5774 85.5943 86.2397 85.3075C88.6679 85.0459 90.7358 84.7547 92.4074 83.9754C87.8564 84.4468 84.2757 84.2345 81.6651 83.3384L81.3685 71.902L81.3703 71.9033ZM80.7413 86.8727C77.6246 85.5021 74.4326 83.7161 73.097 83.3114C75.0199 83.5189 77.7691 84.8527 80.8862 86.0597C84.0033 87.2667 86.5504 87.0819 89.0806 86.784C85.9688 87.6058 83.8566 88.2437 80.7413 86.8727Z" fill="#115E38"/>
</g>
<defs>
<filter id="filter0_d_409_63" x="0" y="0" width="142.673" height="152.172" filterUnits="userSpaceOnUse" color-interpolation-filters="sRGB">
<feFlood flood-opacity="0" result="BackgroundImageFix"/>
<feColorMatrix in="SourceAlpha" type="matrix" values="0 0 0 0 0 0 0 0 0 0 0 0 0 0 0 0 0 0 127 0" result="hardAlpha"/>
<feOffset dx="1" dy="1"/>
<feGaussianBlur stdDeviation="18.5"/>
<feComposite in2="hardAlpha" operator="out"/>
<feColorMatrix type="matrix" values="0 0 0 0 1 0 0 0 0 1 0 0 0 0 1 0 0 0 1 0"/>
<feBlend mode="normal" in2="BackgroundImageFix" result="effect1_dropShadow_409_63"/>
<feBlend mode="normal" in="SourceGraphic" in2="effect1_dropShadow_409_63" result="shape"/>
</filter>
</defs>
</svg>
