<svg width="512" height="512" viewBox="0 0 512 512" fill="none" xmlns="http://www.w3.org/2000/svg">
<path fill-rule="evenodd" clip-rule="evenodd" d="M241.842 512C229.763 512.014 217.7 511.068 205.76 509.171C189.541 506.574 147.593 499.304 107.581 467.776H386.761C342.819 496.329 291.691 512 241.842 512ZM32.805 352.263C26.3666 330.37 22.5181 307.744 21.3446 284.886C24.4341 291.279 27.8899 297.474 31.6933 303.439L32.805 352.264V352.263ZM487.1 349.919L489.186 200.228C489.186 195.808 484.354 187.333 475.469 187.333C475.138 187.333 474.801 187.344 474.46 187.367L426.904 186.087C403.673 130.835 354.457 90.0717 295.296 80.4636C284.869 78.4672 274.288 77.4649 263.686 77.4694C263.442 77.4694 263.2 77.5196 262.975 77.6171C262.751 77.7146 262.546 77.8574 262.375 78.0373C262.204 78.2172 262.068 78.4306 261.977 78.6651C261.885 78.8996 261.84 79.1506 261.842 79.4036L262.899 181.682L123.328 177.931C123.411 134.036 113.316 99.5319 100.148 73.2084C148.317 26.2063 212.953 0.000946045 275.697 0.000946045C277.692 0.000946045 279.678 0.0274794 281.669 0.0805757C299.594 0.558442 368.29 3.50529 428.661 55.2126C446.616 70.7296 462.15 89.0366 474.712 109.484C516.103 176.713 519.661 270.382 488.785 345.896C488.231 347.247 487.674 348.582 487.1 349.919L487.1 349.919Z" fill="url(#paint0_linear_11_2092)"/>
<path fill-rule="evenodd" clip-rule="evenodd" d="M43.2802 467.776H477.529C479.656 467.77 481.695 466.89 483.2 465.329C484.705 463.768 485.553 461.652 485.56 459.443L489.172 200.227C489.172 195.807 484.34 187.332 475.455 187.332C475.124 187.332 474.788 187.343 474.446 187.367L426.893 186.087C428.317 189.475 429.643 192.915 430.87 196.407L458.465 197.179C458.665 197.17 458.869 197.166 459.075 197.166C466.362 197.166 477.674 202.359 478.065 216.129L474.655 451.45C474.65 453.54 473.848 455.544 472.424 457.022C471 458.501 469.071 459.335 467.057 459.342H50.7752C48.7614 459.335 46.832 458.501 45.4086 457.022C43.9852 455.543 43.1834 453.54 43.1784 451.45L37.1289 200.962C37.0824 198.96 37.4286 196.969 38.1465 195.11C38.8645 193.252 39.9392 191.564 41.3053 190.15C43.9672 187.389 47.5758 185.837 51.3389 185.836C51.4654 185.836 51.5928 185.836 51.7198 185.841L262.998 191.729L262.894 181.679L123.33 177.929L94.4523 177.152L89.6927 177.024L72.414 176.559L50.0522 175.96C49.8773 175.956 49.7019 175.954 49.5274 175.954C44.1658 175.954 39.023 178.161 35.2271 182.091C31.7678 185.672 29.6734 190.43 29.3306 195.489C29.2861 196.143 29.2709 196.801 29.2849 197.462L35.2485 459.445C35.2553 461.653 36.1038 463.769 37.6087 465.33C39.1137 466.891 41.1526 467.77 43.2802 467.776V467.776Z" fill="url(#paint1_linear_11_2092)"/>
<path fill-rule="evenodd" clip-rule="evenodd" d="M43.1835 451.449C43.1885 453.539 43.9903 455.542 45.4138 457.021C46.8372 458.5 48.7665 459.334 50.7803 459.341H467.049C469.063 459.334 470.992 458.5 472.416 457.021C473.839 455.543 474.641 453.539 474.646 451.449L478.056 216.128C477.655 201.967 465.702 196.881 458.457 197.178L51.7258 185.843C49.7994 185.79 47.8827 186.145 46.0925 186.885C44.3023 187.626 42.6759 188.736 41.3122 190.15C39.9462 191.564 38.8715 193.252 38.1535 195.11C37.4356 196.969 37.0893 198.96 37.1359 200.962L43.1835 451.449Z" fill="#7EA0D4"/>
<path fill-rule="evenodd" clip-rule="evenodd" d="M253.435 77.5751C159.653 80.595 84.2187 157.034 81.556 251.892C81.5486 252.394 81.6382 252.893 81.8195 253.359C82.0008 253.825 82.2701 254.248 82.6115 254.604C82.953 254.96 83.3596 255.242 83.8075 255.432C84.2554 255.622 84.7355 255.718 85.2194 255.712L248.922 256.275C254.564 256.295 259.131 251.646 259.071 245.944L257.324 81.3416C257.311 80.8278 257.2 80.3217 256.997 79.853C256.794 79.3843 256.503 78.9622 256.141 78.6116C255.779 78.2609 255.353 77.9887 254.888 77.8107C254.424 77.6327 253.93 77.5526 253.435 77.5751V77.5751Z" fill="url(#paint2_linear_11_2092)"/>
<path fill-rule="evenodd" clip-rule="evenodd" d="M81.4751 266.675V266.684C81.4751 348.805 135.393 418.051 209.023 439.462C137.919 417.141 86.1562 348.606 86.1562 267.516V267.505C86.1585 267.143 86.2991 266.795 86.5474 266.54C86.7956 266.285 87.1312 266.142 87.4807 266.143H87.4848L249.292 266.715C250.147 266.717 250.999 266.832 251.827 267.059C250.382 266.291 248.782 265.889 247.158 265.887L82.8252 265.315H82.8202C82.4683 265.311 82.1293 265.452 81.8772 265.707C81.6252 265.962 81.4806 266.31 81.4751 266.675V266.675Z" fill="url(#paint3_linear_11_2092)"/>
<path fill-rule="evenodd" clip-rule="evenodd" d="M263.566 272.73L265.367 442.469C265.379 442.977 265.489 443.477 265.69 443.941C265.891 444.405 266.178 444.822 266.536 445.169C266.894 445.516 267.315 445.786 267.774 445.963C268.233 446.139 268.722 446.219 269.211 446.197C364.545 443.156 440.932 364.147 441.117 267.039C440.922 266.842 440.809 266.728 440.615 266.529L270.231 265.942C269.362 265.928 268.5 266.092 267.693 266.426C266.886 266.761 266.151 267.258 265.531 267.889C264.911 268.521 264.418 269.274 264.081 270.105C263.743 270.936 263.569 271.828 263.566 272.73Z" fill="url(#paint4_linear_11_2092)"/>
<path fill-rule="evenodd" clip-rule="evenodd" d="M271.943 256.342L270.455 256.337C268.642 256.331 266.904 255.584 265.617 254.259C264.33 252.933 263.598 251.134 263.579 249.252L261.824 79.4027C261.822 79.1496 261.868 78.8985 261.959 78.6639C262.051 78.4294 262.186 78.216 262.358 78.0361C262.529 77.8563 262.733 77.7135 262.958 77.616C263.183 77.5186 263.425 77.4684 263.669 77.4684C274.279 77.464 284.867 78.4662 295.302 80.4627C286.385 79.018 277.374 78.294 268.35 78.2971C268.106 78.2971 267.865 78.3473 267.64 78.4447C267.415 78.5422 267.211 78.685 267.039 78.8649C266.868 79.0448 266.733 79.2582 266.641 79.4927C266.55 79.7273 266.504 79.9783 266.507 80.2313L268.26 250.083C268.273 251.374 268.622 252.637 269.27 253.739C269.919 254.841 270.842 255.741 271.943 256.342V256.342Z" fill="url(#paint5_linear_11_2092)"/>
<path fill-rule="evenodd" clip-rule="evenodd" d="M253.587 78.4038C162.273 81.4236 88.8268 157.862 86.2339 252.721C86.2207 253.216 86.3031 253.71 86.4762 254.172C86.6494 254.634 86.9098 255.055 87.2421 255.411C87.5745 255.767 87.9721 256.051 88.4115 256.245C88.851 256.439 89.3234 256.54 89.801 256.542L249.192 257.104C250.497 257.108 251.789 256.844 252.995 256.325C254.201 255.807 255.295 255.045 256.214 254.083C257.134 253.122 257.86 251.981 258.351 250.726C258.841 249.47 259.087 248.127 259.073 246.772L257.373 82.1727C257.368 81.6656 257.265 81.1648 257.071 80.6995C256.877 80.2342 256.595 79.8137 256.243 79.4628C255.89 79.1118 255.473 78.8374 255.017 78.6556C254.561 78.4737 254.075 78.3881 253.587 78.4038Z" fill="url(#paint6_linear_11_2092)"/>
<path fill-rule="evenodd" clip-rule="evenodd" d="M87.4807 266.141H87.4766C87.1272 266.141 86.7917 266.284 86.5434 266.539C86.2952 266.794 86.1545 267.141 86.1521 267.504V267.517C86.1521 348.607 137.915 417.142 209.019 439.463C225.291 444.563 242.199 447.147 259.197 447.131H259.215C259.454 447.131 259.691 447.082 259.912 446.986C260.132 446.891 260.333 446.751 260.501 446.574C260.669 446.398 260.802 446.189 260.892 445.959C260.982 445.729 261.027 445.482 261.024 445.234L259.288 277.017C259.264 274.739 258.521 272.532 257.174 270.733C255.826 268.935 253.947 267.645 251.826 267.061C250.999 266.835 250.147 266.719 249.291 266.717L87.4839 266.145L87.4807 266.141ZM173.586 303.153C182.819 303.164 191.671 306.975 198.199 313.752C204.728 320.528 208.401 329.715 208.411 339.299C208.401 348.882 204.728 358.069 198.199 364.846C191.671 371.622 182.819 375.433 173.586 375.444C164.354 375.433 155.502 371.621 148.974 364.845C142.446 358.069 138.773 348.882 138.763 339.299C138.773 329.716 142.446 320.528 148.974 313.752C155.502 306.976 164.354 303.164 173.586 303.153V303.153ZM173.586 373.215C164.923 373.204 156.618 369.628 150.492 363.269C144.366 356.911 140.921 348.291 140.911 339.299C140.92 330.306 144.366 321.685 150.492 315.327C156.617 308.968 164.923 305.391 173.586 305.381C182.25 305.391 190.556 308.967 196.682 315.326C202.808 321.685 206.254 330.306 206.264 339.299C206.254 348.291 202.808 356.912 196.681 363.27C190.555 369.628 182.25 373.205 173.586 373.215V373.215ZM175.27 340.297C179.811 340.286 184.318 341.11 188.582 342.731C189.911 343.242 190.999 344.267 191.618 345.59C192.237 346.914 192.339 348.435 191.905 349.835L190.68 353.807C190.324 354.96 189.625 355.967 188.682 356.681C187.739 357.395 186.602 357.779 185.435 357.779H162.69C161.481 357.779 160.305 357.366 159.345 356.603C158.384 355.84 157.693 354.771 157.377 353.559L156.434 349.953C156.062 348.555 156.218 347.063 156.871 345.78C157.524 344.498 158.624 343.523 159.947 343.054C164.878 341.286 170.052 340.355 175.27 340.297L175.27 340.297ZM174.254 316.975C179.4 316.975 183.571 320.764 183.571 326.106C183.571 331.447 179.399 337.214 174.254 337.214C169.108 337.214 164.936 331.447 164.936 326.106C164.936 320.764 169.108 316.976 174.254 316.976L174.254 316.975Z" fill="url(#paint7_linear_11_2092)"/>
<path fill-rule="evenodd" clip-rule="evenodd" d="M268.249 273.558L270.002 443.297C270.007 443.799 270.108 444.294 270.3 444.755C270.492 445.215 270.771 445.631 271.12 445.978C271.468 446.325 271.88 446.597 272.332 446.777C272.783 446.957 273.264 447.041 273.747 447.026C366.632 443.985 441.06 364.977 441.238 267.869L440.748 267.357L274.739 266.77C273.882 266.768 273.032 266.942 272.24 267.282C271.449 267.623 270.73 268.124 270.126 268.755C269.522 269.387 269.045 270.137 268.723 270.961C268.401 271.786 268.239 272.669 268.249 273.558V273.558Z" fill="url(#paint8_linear_11_2092)"/>
<path fill-rule="evenodd" clip-rule="evenodd" d="M434.882 257.73H434.861L274.98 257.167C273.867 257.163 272.772 256.88 271.788 256.342C270.687 255.74 269.764 254.841 269.116 253.74C268.467 252.638 268.118 251.375 268.104 250.084L266.351 80.2328C266.349 79.9798 266.394 79.7287 266.486 79.4942C266.577 79.2596 266.712 79.0462 266.884 78.8663C267.055 78.6864 267.259 78.5436 267.484 78.4462C267.709 78.3487 267.951 78.2985 268.194 78.2985C277.219 78.2954 286.23 79.0194 295.146 80.4641C354.348 90.0736 403.599 130.837 426.847 186.088C428.272 189.476 429.599 192.916 430.826 196.408C431.365 197.948 431.885 199.49 432.386 201.051C432.634 201.821 432.881 202.605 433.116 203.383C437.844 218.815 440.534 234.841 441.113 251.024C441.144 251.893 441.005 252.76 440.706 253.572C440.407 254.384 439.953 255.125 439.371 255.751C438.79 256.377 438.093 256.875 437.322 257.215C436.55 257.555 435.721 257.73 434.883 257.729L434.882 257.73ZM336.673 145.64C327.44 145.651 318.588 149.462 312.06 156.239C305.532 163.015 301.859 172.202 301.849 181.786C301.859 191.369 305.532 200.556 312.06 207.333C318.588 214.109 327.44 217.92 336.673 217.931C345.905 217.92 354.757 214.109 361.285 207.333C367.814 200.556 371.486 191.369 371.496 181.786C371.486 172.202 367.814 163.015 361.285 156.239C354.757 149.462 345.905 145.651 336.673 145.64ZM336.673 215.704C345.336 215.694 353.642 212.117 359.768 205.758C365.894 199.399 369.34 190.778 369.35 181.786C369.34 172.793 365.894 164.172 359.768 157.813C353.642 151.454 345.336 147.878 336.673 147.867C328.009 147.878 319.704 151.455 313.578 157.813C307.452 164.172 304.006 172.793 303.997 181.786C304.006 190.778 307.452 199.399 313.578 205.758C319.704 212.117 328.009 215.693 336.673 215.704V215.704ZM323.203 189.867C322.985 189.862 322.775 189.943 322.612 190.092C322.449 190.241 322.346 190.448 322.323 190.673V190.881C322.323 195.438 325.991 198.486 330.382 198.486H334.782V202.456C334.782 203.208 335.772 203.819 336.859 203.819C337.946 203.819 338.935 203.208 338.935 202.456V198.486H343.441C347.832 198.486 351.394 195.438 351.394 190.881V188.468C351.394 183.911 347.831 179.808 343.441 179.808H338.935V169.032H343.441C345.069 169.032 346.547 170.994 346.547 172.682V175.12C346.547 175.568 346.743 176.214 347.174 176.214H350.619C351.05 176.214 351.392 175.568 351.392 175.12V172.682C351.392 168.126 347.829 164.718 343.44 164.718H338.933V161.106C338.933 160.355 337.945 159.744 336.858 159.744C335.771 159.744 334.78 160.355 334.78 161.106V164.718H330.38C325.99 164.718 322.322 168.125 322.322 172.682V177.139C322.34 179.356 323.193 181.477 324.699 183.05C326.205 184.623 328.244 185.521 330.38 185.554H334.78V194.174H330.38C329.547 194.132 328.759 193.773 328.167 193.165C327.574 192.557 327.218 191.744 327.167 190.881V190.672C327.167 190.222 327.078 189.866 326.645 189.866L323.203 189.867ZM343.441 194.176C344.261 194.13 345.035 193.765 345.61 193.156C346.185 192.546 346.519 191.736 346.547 190.883V188.47C346.547 186.78 345.067 185.557 343.441 185.557H338.934V194.177L343.441 194.176ZM334.782 179.809V169.033H330.382C328.754 169.033 327.168 170.996 327.168 172.684V177.14C327.168 178.83 328.754 179.808 330.382 179.808L334.782 179.809Z" fill="url(#paint9_linear_11_2092)"/>
<path fill-rule="evenodd" clip-rule="evenodd" d="M336.782 217.929C327.549 217.919 318.698 214.107 312.169 207.331C305.641 200.555 301.969 191.367 301.958 181.784C301.969 172.201 305.641 163.013 312.169 156.237C318.698 149.461 327.549 145.649 336.782 145.639C346.014 145.649 354.866 149.461 361.394 156.237C367.923 163.013 371.595 172.201 371.605 181.784C371.595 191.367 367.923 200.555 361.394 207.331C354.866 214.107 346.014 217.919 336.782 217.929V217.929ZM336.782 147.866C328.118 147.876 319.813 151.453 313.687 157.812C307.561 164.171 304.116 172.792 304.106 181.784C304.116 190.776 307.561 199.398 313.687 205.756C319.813 212.115 328.118 215.692 336.782 215.702C345.445 215.692 353.751 212.115 359.878 205.757C366.004 199.398 369.45 190.777 369.459 181.784C369.449 172.792 366.003 164.171 359.877 157.813C353.751 151.454 345.445 147.878 336.782 147.867V147.866Z" fill="url(#paint10_linear_11_2092)"/>
<path fill-rule="evenodd" clip-rule="evenodd" d="M209.92 178.739C208.723 180.817 207.118 182.61 205.209 184.001C203.42 185.318 201.397 186.255 199.257 186.755C197.118 187.256 194.904 187.311 192.743 186.917C190.581 186.536 188.513 185.713 186.66 184.496C184.806 183.28 183.203 181.694 181.944 179.83C180.675 177.974 179.773 175.874 179.291 173.653C178.809 171.433 178.757 169.135 179.136 166.893C179.504 164.648 180.296 162.501 181.469 160.577C182.641 158.652 184.17 156.988 185.966 155.681C187.755 154.363 189.777 153.428 191.917 152.927C194.056 152.427 196.27 152.372 198.43 152.766C199.6 152.976 200.746 153.314 201.848 153.773C202.249 153.942 202.569 154.268 202.738 154.682C202.907 155.095 202.911 155.561 202.75 155.977C202.67 156.184 202.552 156.372 202.402 156.531C202.252 156.69 202.073 156.817 201.876 156.904C201.679 156.991 201.467 157.037 201.253 157.039C201.038 157.041 200.826 156.999 200.627 156.915C199.74 156.544 198.817 156.272 197.875 156.103C196.137 155.787 194.355 155.831 192.634 156.234C190.912 156.636 189.285 157.39 187.846 158.449C186.401 159.501 185.172 160.839 184.229 162.387C183.286 163.935 182.648 165.662 182.352 167.468C182.048 169.271 182.09 171.12 182.478 172.907C182.866 174.693 183.592 176.382 184.613 177.876C185.625 179.376 186.915 180.652 188.406 181.631C189.898 182.61 191.562 183.271 193.301 183.578C195.039 183.894 196.82 183.85 198.541 183.448C200.263 183.045 201.89 182.293 203.329 181.233C204.774 180.182 206.004 178.844 206.947 177.296C207.89 175.748 208.527 174.021 208.822 172.215C209.238 169.731 208.996 167.177 208.121 164.826C207.965 164.407 207.976 163.94 208.151 163.53C208.326 163.119 208.651 162.797 209.055 162.635C209.254 162.555 209.468 162.516 209.682 162.521C209.896 162.526 210.107 162.575 210.303 162.665C210.499 162.755 210.676 162.885 210.824 163.046C210.972 163.207 211.088 163.396 211.165 163.604C212.252 166.528 212.553 169.703 212.037 172.79C211.692 174.892 210.974 176.91 209.921 178.741L209.92 178.739ZM172.818 183.976V183.972V183.976ZM193.116 197.295L193.113 197.302L193.116 197.295ZM215.529 177.494L220.703 176.621L221.473 171.994L216.88 169.37L216.827 168.435C216.691 166.065 216.184 163.734 215.326 161.534L214.989 160.667L218.054 156.25L215.447 152.41L210.407 153.927L209.734 153.307C208.026 151.728 206.081 150.45 203.975 149.523L203.145 149.159L202.305 143.787L197.846 142.988L195.318 147.755L194.42 147.81C192.136 147.951 189.89 148.477 187.769 149.368L186.934 149.719L182.678 146.536L178.979 149.242L180.44 154.474L179.841 155.172C178.32 156.944 177.089 158.964 176.198 161.15L175.846 162.011L170.67 162.883L169.9 167.511L174.493 170.135L174.546 171.07C174.682 173.439 175.189 175.77 176.047 177.971L176.385 178.837L173.318 183.255L175.927 187.095L180.965 185.578L181.638 186.198C183.346 187.777 185.292 189.054 187.397 189.981L188.227 190.345L189.067 195.718L193.529 196.516L196.057 191.749L196.957 191.694C199.24 191.554 201.486 191.028 203.606 190.136L204.441 189.785L208.697 192.968L212.396 190.261L210.935 185.031L211.534 184.333C213.055 182.559 214.286 180.539 215.178 178.353L215.531 177.494H215.529ZM223.511 178.806C223.641 178.581 223.729 178.333 223.772 178.075L224.836 171.686C224.907 171.248 224.846 170.798 224.66 170.399C224.474 169.999 224.173 169.669 223.798 169.455L220.014 167.292C219.819 165.194 219.37 163.129 218.677 161.148L221.209 157.504C221.457 157.142 221.591 156.71 221.592 156.266C221.594 155.823 221.463 155.389 221.217 155.026L217.618 149.729C217.371 149.366 217.021 149.092 216.617 148.946C216.214 148.799 215.776 148.786 215.365 148.909L211.213 150.16C209.645 148.82 207.922 147.689 206.083 146.794L205.39 142.371C205.322 141.931 205.124 141.524 204.822 141.207C204.52 140.891 204.131 140.68 203.708 140.605L197.559 139.502C197.137 139.427 196.703 139.49 196.317 139.682C195.93 139.875 195.611 140.187 195.403 140.575L193.321 144.505C191.299 144.708 189.31 145.175 187.4 145.893L183.892 143.269C183.544 143.009 183.127 142.869 182.699 142.866C182.27 142.864 181.852 143 181.502 143.256L176.4 146.992C176.05 147.248 175.786 147.612 175.644 148.031C175.503 148.45 175.49 148.905 175.609 149.332L176.814 153.642C175.521 155.268 174.432 157.057 173.571 158.967L169.311 159.686C168.887 159.755 168.495 159.961 168.189 160.274C167.884 160.587 167.68 160.991 167.607 161.43L166.545 167.814C166.471 168.252 166.531 168.704 166.717 169.105C166.902 169.507 167.205 169.838 167.581 170.052L171.365 172.215C171.561 174.313 172.01 176.377 172.702 178.359L170.176 181.998C169.923 182.358 169.785 182.791 169.782 183.237C169.78 183.683 169.912 184.118 170.162 184.481L173.761 189.777C174.008 190.14 174.358 190.414 174.762 190.561C175.166 190.709 175.604 190.721 176.016 190.598L180.172 189.347C181.739 190.688 183.461 191.819 185.3 192.713L185.993 197.138C186.061 197.577 186.26 197.983 186.561 198.299C186.862 198.616 187.251 198.827 187.673 198.902L193.827 200.007C194.249 200.081 194.683 200.016 195.068 199.824C195.454 199.631 195.772 199.318 195.98 198.93L198.064 195.002C200.085 194.798 202.074 194.332 203.983 193.614L207.491 196.238C207.838 196.498 208.256 196.639 208.684 196.641C209.112 196.643 209.531 196.507 209.881 196.251L214.981 192.515C215.331 192.259 215.596 191.896 215.738 191.477C215.88 191.057 215.893 190.602 215.774 190.175L214.569 185.865C215.861 184.238 216.951 182.449 217.812 180.54L222.077 179.821C222.373 179.771 222.654 179.654 222.902 179.479C223.149 179.303 223.357 179.074 223.51 178.806H223.511Z" fill="#AEC2E4"/>
<path fill-rule="evenodd" clip-rule="evenodd" d="M173.566 375.442C164.334 375.432 155.482 371.62 148.954 364.844C142.426 358.068 138.753 348.88 138.743 339.297C138.753 329.714 142.426 320.527 148.954 313.751C155.482 306.974 164.334 303.163 173.566 303.152C182.799 303.162 191.651 306.974 198.179 313.75C204.708 320.526 208.381 329.714 208.391 339.297C208.381 348.88 204.708 358.068 198.179 364.844C191.651 371.62 182.799 375.432 173.566 375.442V375.442ZM173.566 305.379C164.903 305.39 156.597 308.967 150.472 315.325C144.346 321.684 140.9 330.305 140.89 339.297C140.9 348.289 144.346 356.91 150.472 363.269C156.597 369.627 164.903 373.204 173.566 373.214C182.23 373.204 190.535 369.628 196.661 363.27C202.788 356.911 206.234 348.29 206.244 339.298C206.234 330.306 202.788 321.685 196.662 315.326C190.536 308.967 182.23 305.391 173.566 305.381V305.379Z" fill="url(#paint11_linear_11_2092)"/>
<path fill-rule="evenodd" clip-rule="evenodd" d="M309.633 256.071C309.633 256.071 331.291 291.629 357.045 298.501C357.045 298.501 352.028 313.336 348.154 315.033C348.154 315.033 316.468 287.591 308.327 261.126L309.633 256.071Z" fill="url(#paint12_linear_11_2092)"/>
<path fill-rule="evenodd" clip-rule="evenodd" d="M309.804 263.393C309.739 264.126 312.365 264.632 313.202 261.505C312.974 260.147 312.563 254.202 311.562 253.279C306.22 248.36 296.695 242.827 296.695 242.827C296.389 243.247 296.252 243.774 296.314 244.297C296.376 244.82 296.632 245.296 297.028 245.626L301.783 248.956C301.286 250.663 300.562 252.169 300.481 254.116C300.433 255.598 300.935 257.043 301.885 258.15C302.831 259.273 304.105 260.723 305.253 261.822C305.848 262.424 306.567 262.878 307.355 263.15C308.143 263.422 308.98 263.505 309.804 263.393V263.393Z" fill="url(#paint13_linear_11_2092)"/>
<path fill-rule="evenodd" clip-rule="evenodd" d="M307.22 260.969L307.948 260.66C307.851 260.415 305.57 254.661 304.465 253.463C304.125 253.175 303.909 252.76 303.863 252.307C303.883 252.113 303.969 251.933 304.106 251.799L307.953 253.934L309.653 256.695L310.315 256.256L308.506 253.314L304 250.813L303.795 250.985C303.595 251.131 303.428 251.32 303.304 251.54C303.18 251.759 303.102 252.003 303.077 252.256C303.087 252.594 303.165 252.926 303.306 253.231C303.447 253.536 303.648 253.808 303.896 254.028C304.728 254.928 306.577 259.343 307.22 260.969Z" fill="url(#paint14_linear_11_2092)"/>
<path fill-rule="evenodd" clip-rule="evenodd" d="M470.803 292.89H470.787C470.641 292.887 470.496 292.855 470.362 292.795C470.228 292.735 470.106 292.648 470.004 292.539C469.903 292.43 469.822 292.301 469.769 292.16C469.715 292.018 469.688 291.868 469.691 291.716L470.725 218.622C470.704 214.281 469.435 210.814 466.949 208.344C462.311 203.73 454.947 203.966 454.635 203.982L324.534 200.362C324.388 200.358 324.244 200.324 324.111 200.262C323.977 200.201 323.857 200.112 323.756 200.002C323.656 199.892 323.577 199.762 323.524 199.621C323.472 199.479 323.447 199.328 323.451 199.177C323.448 199.023 323.476 198.87 323.534 198.728C323.591 198.587 323.676 198.459 323.783 198.353C323.891 198.247 324.018 198.166 324.158 198.114C324.297 198.062 324.445 198.041 324.593 198.052L454.618 201.673C455.427 201.625 463.268 201.483 468.49 206.675C471.428 209.598 472.929 213.622 472.95 218.638L471.916 291.753C471.911 292.056 471.792 292.345 471.583 292.558C471.375 292.77 471.095 292.889 470.803 292.89V292.89Z" fill="#AEC2E4"/>
<path fill-rule="evenodd" clip-rule="evenodd" d="M351.508 190.885V188.471C351.508 183.915 347.945 179.812 343.556 179.812H339.049V169.036H343.556C345.183 169.036 346.662 170.998 346.662 172.686V175.124C346.662 175.572 346.857 176.218 347.289 176.218H350.733C351.164 176.218 351.506 175.572 351.506 175.124V172.686C351.506 168.129 347.944 164.722 343.554 164.722H339.047V161.11C339.047 160.359 338.059 159.748 336.972 159.748C335.885 159.748 334.895 160.358 334.895 161.11V164.722H330.494C326.104 164.722 322.436 168.128 322.436 172.686V177.143C322.454 179.36 323.308 181.481 324.813 183.054C326.319 184.626 328.358 185.525 330.494 185.558H334.895V194.179H330.494C329.662 194.137 328.874 193.778 328.281 193.17C327.688 192.562 327.332 191.749 327.281 190.886V190.677C327.281 190.227 327.193 189.871 326.759 189.871H323.315C323.098 189.867 322.887 189.948 322.724 190.097C322.562 190.246 322.459 190.453 322.436 190.677V190.886C322.436 195.443 326.104 198.491 330.494 198.491H334.895V202.461C334.895 203.212 335.885 203.823 336.972 203.823C338.059 203.823 339.047 203.213 339.047 202.461V198.491H343.554C347.944 198.491 351.506 195.443 351.506 190.886L351.508 190.885ZM339.049 185.558H343.556C345.183 185.558 346.662 186.781 346.662 188.471V190.884C346.634 191.737 346.3 192.548 345.725 193.157C345.15 193.767 344.376 194.131 343.556 194.178H339.049V185.558ZM330.496 169.035H334.897V179.811H330.496C328.868 179.811 327.283 178.833 327.283 177.143V172.687C327.285 170.997 328.868 169.035 330.496 169.035Z" fill="url(#paint15_linear_11_2092)"/>
<path fill-rule="evenodd" clip-rule="evenodd" d="M326.453 352.86L310.984 352.514V329.889C310.984 329.71 311.019 329.532 311.086 329.366C311.154 329.201 311.253 329.052 311.378 328.927C311.503 328.802 311.65 328.705 311.812 328.641C311.974 328.577 312.146 328.548 312.319 328.554L325.51 329.061C325.764 329.07 326.003 329.181 326.179 329.37C326.355 329.56 326.453 329.813 326.453 330.076V352.86Z" fill="#AEC2E4"/>
<path fill-rule="evenodd" clip-rule="evenodd" d="M347.707 353.318L332.24 352.993V318.821C332.239 318.679 332.267 318.54 332.32 318.41C332.374 318.28 332.452 318.163 332.55 318.065C332.648 317.967 332.764 317.891 332.891 317.841C333.019 317.791 333.154 317.769 333.29 317.775L346.79 318.371C347.036 318.382 347.269 318.492 347.439 318.676C347.61 318.861 347.705 319.107 347.706 319.363L347.707 353.318Z" fill="#AEC2E4"/>
<path fill-rule="evenodd" clip-rule="evenodd" d="M368.319 353.784L353.494 353.453V310.161C353.494 309.97 353.532 309.78 353.604 309.604C353.677 309.428 353.784 309.269 353.918 309.137C354.051 309.005 354.21 308.903 354.383 308.837C354.556 308.77 354.74 308.741 354.925 308.751L367.221 309.398C367.517 309.415 367.796 309.548 368 309.771C368.203 309.994 368.317 310.29 368.317 310.598L368.319 353.784Z" fill="#AEC2E4"/>
<path fill-rule="evenodd" clip-rule="evenodd" d="M368.623 264.358C368.623 264.358 373.531 266.834 374.433 269.679C375.155 271.963 380.581 272.258 381.117 276.749C381.235 277.872 381.706 278.924 382.457 279.743C383.208 280.561 384.198 281.101 385.273 281.278C390.815 282.159 399.354 285.146 400.721 295.132C401.762 302.753 398.02 305.644 394.092 306.644C392.697 306.979 391.48 307.859 390.693 309.102C389.907 310.344 389.613 311.853 389.871 313.315C390.431 316.215 389.597 319.569 384.755 322.22C373.907 328.161 363.074 308.146 363.074 308.146L360.854 273.195L368.623 264.358Z" fill="url(#paint16_linear_11_2092)"/>
<path fill-rule="evenodd" clip-rule="evenodd" d="M371.599 348.087C366.131 324.038 379.983 310.437 379.983 310.437C371.241 301.729 355.319 297.767 355.319 297.767C355.319 297.767 340.125 309.298 341.927 318.324C342.984 323.612 352.608 350.007 352.608 350.007C352.608 350.007 361.504 354.379 371.599 348.087Z" fill="url(#paint17_linear_11_2092)"/>
<path fill-rule="evenodd" clip-rule="evenodd" d="M365.254 281.872L369.699 302.597C370.125 304.424 368.522 304.124 366.743 303.777C363.831 303.208 360.078 302.032 358.824 299.681C358.701 299.437 358.624 299.173 358.595 298.9L356.686 284.53C356.613 283.975 356.716 283.41 356.978 282.921C357.241 282.431 357.65 282.044 358.143 281.816L361.829 280.121C362.162 279.968 362.523 279.892 362.887 279.9C363.251 279.908 363.609 279.998 363.936 280.165C364.262 280.332 364.55 280.572 364.777 280.867C365.005 281.162 365.168 281.505 365.254 281.872V281.872Z" fill="url(#paint18_linear_11_2092)"/>
<path fill-rule="evenodd" clip-rule="evenodd" d="M379.969 310.437C379.969 310.437 410.996 333.477 383.936 357.688C383.084 358.565 382.029 359.199 380.873 359.529C379.849 359.847 376.817 362.228 375.28 363.47C375.163 363.564 375.029 363.631 374.885 363.668C374.742 363.705 374.593 363.71 374.448 363.682C374.302 363.655 374.164 363.596 374.042 363.51C373.92 363.424 373.817 363.312 373.74 363.181C373.612 362.969 373.538 362.727 373.524 362.477C373.51 362.227 373.556 361.978 373.659 361.751L377.501 353.32C378.017 352.82 378.689 352.528 379.394 352.496C380.099 352.464 380.793 352.695 381.349 353.146C381.52 353.286 381.719 353.385 381.931 353.435C382.144 353.484 382.364 353.484 382.577 353.434C382.789 353.384 382.988 353.286 383.159 353.146C383.33 353.006 383.468 352.828 383.565 352.625C385.657 348.202 389.607 335.197 373.44 320.501C373.147 320.23 372.949 319.866 372.878 319.465C372.808 319.064 372.868 318.651 373.051 318.29C374.189 316.028 376.788 311.53 379.969 310.437Z" fill="url(#paint19_linear_11_2092)"/>
<path fill-rule="evenodd" clip-rule="evenodd" d="M356.742 262.98C356.742 262.98 352.008 266.304 349.975 274.772C347.942 283.241 351.245 286.28 354.634 286.093C358.022 285.907 362.935 284.819 367.189 278.745C371.444 272.671 362.943 258.916 356.742 262.98Z" fill="url(#paint20_linear_11_2092)"/>
<path fill-rule="evenodd" clip-rule="evenodd" d="M362.894 275.328C362.894 275.328 364.629 263.192 354.922 265.05L352.958 267.171C352.958 267.171 348.208 261.617 353.465 257.419C358.723 253.22 366.017 254.298 370.054 261.939C374.09 269.581 375.555 274.951 372.173 279.7C368.79 284.449 366.245 280.376 366.245 280.376C366.245 280.376 367.795 276.266 366.509 274.503C365.224 272.74 363.56 275.527 363.56 275.527L362.894 275.328Z" fill="url(#paint21_linear_11_2092)"/>
<path fill-rule="evenodd" clip-rule="evenodd" d="M364.22 276.367C364.22 276.367 365.077 270.124 368.148 271.91C371.22 273.697 367.04 277.742 365.365 279.121L364.22 276.367Z" fill="url(#paint22_linear_11_2092)"/>
<path fill-rule="evenodd" clip-rule="evenodd" d="M470.142 339.655H470.125C469.829 339.65 469.548 339.524 469.343 339.304C469.137 339.084 469.024 338.788 469.029 338.481L469.298 319.396C469.303 319.093 469.422 318.804 469.63 318.591C469.839 318.378 470.119 318.259 470.412 318.259H470.422C470.569 318.26 470.714 318.292 470.849 318.352C470.984 318.412 471.106 318.499 471.209 318.608C471.311 318.717 471.392 318.846 471.447 318.987C471.501 319.129 471.528 319.28 471.526 319.433L471.257 338.517C471.252 338.821 471.132 339.11 470.924 339.323C470.715 339.536 470.435 339.655 470.142 339.655Z" fill="#AEC2E4"/>
<path d="M2.58055 466.52H509.419C510.104 466.52 510.76 466.802 511.244 467.304C511.728 467.807 512 468.488 512 469.198V486.616C512 487.327 511.728 488.008 511.244 488.51C510.76 489.012 510.104 489.295 509.419 489.295H2.58238C1.89749 489.295 1.24065 489.012 0.756362 488.51C0.272071 488.007 0 487.325 0 486.614L0 469.198C0 468.488 0.271879 467.807 0.755826 467.304C1.23977 466.802 1.89615 466.52 2.58055 466.52V466.52Z" fill="url(#paint23_linear_11_2092)"/>
<path fill-rule="evenodd" clip-rule="evenodd" d="M370.239 363.71L308.389 362.778C308.216 362.775 308.052 362.702 307.93 362.574C307.809 362.447 307.741 362.275 307.741 362.095V358.063C307.741 357.972 307.758 357.882 307.792 357.799C307.826 357.715 307.875 357.639 307.938 357.575C308 357.512 308.074 357.461 308.155 357.428C308.236 357.394 308.323 357.377 308.41 357.379L370.26 358.531C370.433 358.534 370.597 358.607 370.718 358.735C370.839 358.863 370.908 359.034 370.908 359.214V363.028C370.908 363.119 370.891 363.209 370.857 363.292C370.824 363.376 370.774 363.452 370.712 363.515C370.649 363.579 370.575 363.629 370.494 363.662C370.413 363.696 370.326 363.712 370.239 363.71Z" fill="#AEC2E4"/>
<path fill-rule="evenodd" clip-rule="evenodd" d="M421.49 481.21H415.088C414.809 481.211 414.533 481.272 414.278 481.391C414.024 481.51 413.797 481.684 413.612 481.901C413.427 482.118 413.288 482.373 413.205 482.65C413.123 482.926 413.097 483.218 413.131 483.505L413.833 489.494C413.896 490.046 414.137 490.56 414.516 490.953C414.895 491.346 415.391 491.594 415.923 491.659C418.486 491.981 421.075 492.023 423.646 491.785C423.946 491.75 424.235 491.646 424.491 491.481C424.748 491.316 424.966 491.094 425.13 490.831C425.294 490.568 425.4 490.271 425.44 489.96C425.48 489.65 425.454 489.334 425.362 489.035C424.654 486.726 423.357 483.253 421.49 481.21Z" fill="url(#paint24_linear_11_2092)"/>
<path fill-rule="evenodd" clip-rule="evenodd" d="M363.087 413.342L362.008 419.94C362.008 419.94 365.625 457.979 366.269 473.197C366.368 475.581 365.776 477.942 364.569 479.973L358.276 490.577L374.267 480.785L374.587 478.759L371.969 475.023L375.397 432.406C375.598 429.903 375.1 427.393 373.963 425.176L370.656 418.729L363.087 413.342Z" fill="url(#paint25_linear_11_2092)"/>
<path fill-rule="evenodd" clip-rule="evenodd" d="M357.224 492.113H362.326C362.797 492.114 363.262 492.002 363.685 491.787C364.107 491.572 364.477 491.258 364.764 490.871C366.355 488.726 369.651 484.541 371.228 484.431C373.349 484.283 373.078 492.111 373.078 492.111H374.265L375.772 482.383C375.957 481.189 375.776 479.965 375.253 478.884C374.73 477.804 373.893 476.921 372.86 476.362C372.86 476.362 372.376 480.085 369.746 481.731C367.116 483.377 359.045 489.276 359.045 489.276C358.355 489.192 357.657 489.211 356.972 489.333C356.639 489.395 356.342 489.586 356.138 489.865C355.934 490.145 355.838 490.494 355.87 490.843C355.901 491.192 356.058 491.516 356.309 491.751C356.56 491.986 356.886 492.115 357.224 492.113Z" fill="url(#paint26_linear_11_2092)"/>
<path fill-rule="evenodd" clip-rule="evenodd" d="M384.958 416.472C384.958 416.472 406.155 458.207 409.523 467.736C412.892 477.264 414.074 485.213 414.119 485.967C414.19 487.142 415.599 488.271 419.484 488.271C421.488 488.271 422.472 487.437 422.953 486.629C423.152 486.288 423.264 485.9 423.279 485.502C423.294 485.104 423.21 484.709 423.037 484.353C421.811 481.778 417.922 473.544 416.48 469.814C414.759 465.358 411.058 445.156 409.028 438.132C406.998 431.109 404.703 423.491 395.865 416.473C395.865 416.472 389.796 410.304 384.958 416.472Z" fill="url(#paint27_linear_11_2092)"/>
<path fill-rule="evenodd" clip-rule="evenodd" d="M383.71 359.993C381.485 353.035 371.588 348.087 371.588 348.087C361.494 354.379 352.595 350.007 352.595 350.007C352.595 350.007 350.599 357.926 351.977 365.284C353.354 372.643 361.998 419.935 361.998 419.935C375.614 422.799 396.558 417.053 396.558 417.053C387.884 401.07 385.936 366.952 383.71 359.993Z" fill="url(#paint28_linear_11_2092)"/>
<path fill-rule="evenodd" clip-rule="evenodd" d="M45.1606 13.0403C44.9882 12.4614 44.9971 11.8407 45.1858 11.2674C45.3746 10.694 45.7336 10.1975 46.2113 9.84922C46.6889 9.50091 47.2606 9.31869 47.8443 9.32877C48.428 9.33884 48.9936 9.54067 49.4598 9.90527C71.1748 26.851 124.551 78.9238 123.381 180.685C121.914 308.359 152.059 351.451 186.499 375.908C186.499 375.908 141.881 367.647 109.754 324.096C30.8744 217.167 59.6487 60.0704 45.1606 13.0403Z" fill="#7EA0D4"/>
<path fill-rule="evenodd" clip-rule="evenodd" d="M94.5012 177.154L89.7379 177.026C89.7242 176.904 89.71 176.779 89.6963 176.657C88.158 162.445 86.0374 148.307 83.6624 134.208C81.2347 120.121 78.3877 106.114 75.1214 92.1875C71.9307 78.2497 68.2481 64.43 64.3019 50.6851C64.2497 50.5016 64.2674 50.3043 64.3515 50.134C64.4356 49.9636 64.5795 49.8334 64.7535 49.7702C64.8291 49.7427 64.9087 49.7285 64.9888 49.7285C65.1377 49.7286 65.2828 49.7768 65.4041 49.8664C65.5254 49.956 65.6168 50.0826 65.6657 50.2286C70.2074 63.8066 74.245 77.5689 77.9295 91.4375C81.5495 105.324 84.7506 119.325 87.5328 133.44C88.2224 136.968 88.8877 140.501 89.5287 144.041C90.1394 147.584 90.7564 151.128 91.3072 154.683C92.4481 161.789 93.4664 168.914 94.3619 176.059C94.4089 176.424 94.4551 176.79 94.5012 177.154Z" fill="#B1C9E9"/>
<path fill-rule="evenodd" clip-rule="evenodd" d="M64.2256 330.615C63.8903 331.503 63.3498 332.291 62.6518 332.91C61.9538 333.53 61.1196 333.962 60.2229 334.168C59.3261 334.374 58.3943 334.348 57.5095 334.092C56.6248 333.836 55.8142 333.359 55.1493 332.701C39.228 317.03 -1.92706 268.498 3.85566 190.109C8.73907 123.911 5.32592 87.5344 2.67457 71.1324C2.55261 70.3756 2.66394 69.598 2.99265 68.9107C3.32136 68.2233 3.85065 67.6612 4.50519 67.3044C5.15973 66.9476 5.90611 66.8143 6.63789 66.9236C7.36966 67.0329 8.04954 67.3791 8.58063 67.913C35.4522 94.8873 116.22 191.13 64.2256 330.615Z" fill="#AEC2E4"/>
<path fill-rule="evenodd" clip-rule="evenodd" d="M29.8843 223.702C25.8572 198.144 23.2758 170.153 24.1153 142.316C24.1279 141.897 24.297 141.5 24.5869 141.209C24.8767 140.917 25.2645 140.754 25.6682 140.754C25.6834 140.754 25.6986 140.754 25.7138 140.754C26.1251 140.768 26.5144 140.95 26.7964 141.261C27.0783 141.572 27.2297 141.987 27.2174 142.414C26.7575 160.133 27.4629 177.865 29.3289 195.484C29.2844 196.139 29.2692 196.797 29.2832 197.458L29.8843 223.702Z" fill="#D4DFF2"/>
<path fill-rule="evenodd" clip-rule="evenodd" d="M192.322 167.676C191.909 168.395 191.721 169.229 191.784 170.063C191.865 171.136 192.352 172.132 193.139 172.832C193.926 173.533 194.948 173.881 195.982 173.8C197.016 173.717 197.976 173.212 198.652 172.395C199.327 171.578 199.662 170.516 199.583 169.443C199.545 168.911 199.407 168.393 199.175 167.917C198.943 167.442 198.623 167.018 198.232 166.672C197.843 166.323 197.392 166.058 196.903 165.892C196.415 165.726 195.9 165.662 195.387 165.705V165.705C194.874 165.744 194.373 165.888 193.914 166.129C193.455 166.37 193.047 166.704 192.713 167.11C192.567 167.288 192.436 167.478 192.32 167.679L192.322 167.676ZM201.847 173.563C201.259 174.59 200.442 175.454 199.464 176.083C198.486 176.712 197.377 177.087 196.229 177.178C194.333 177.325 192.457 176.687 191.014 175.401C189.571 174.116 188.678 172.289 188.53 170.321C188.455 169.345 188.568 168.364 188.861 167.434C189.155 166.504 189.623 165.643 190.239 164.902C190.851 164.158 191.599 163.548 192.44 163.106C193.281 162.664 194.198 162.399 195.138 162.328V162.328C196.078 162.25 197.023 162.367 197.919 162.671C198.815 162.976 199.643 163.462 200.356 164.101C201.074 164.736 201.663 165.513 202.089 166.386C202.515 167.259 202.77 168.211 202.839 169.187C202.954 170.717 202.607 172.246 201.847 173.563V173.563Z" fill="#AEC2E4"/>
<path fill-rule="evenodd" clip-rule="evenodd" d="M166.972 207.636C166.792 207.952 166.592 208.255 166.374 208.543C165.692 209.456 164.843 210.219 163.876 210.789C162.909 211.358 161.842 211.723 160.738 211.862C158.51 212.147 156.264 211.502 154.492 210.071C152.721 208.639 151.569 206.536 151.29 204.224C151.149 203.078 151.229 201.915 151.524 200.802C151.82 199.688 152.326 198.647 153.013 197.738C153.694 196.826 154.543 196.063 155.511 195.494C156.478 194.924 157.544 194.559 158.648 194.42C159.246 194.343 159.85 194.332 160.451 194.387C160.773 194.417 161.071 194.578 161.28 194.836C161.488 195.094 161.589 195.427 161.56 195.762C161.532 196.097 161.376 196.407 161.128 196.623C160.88 196.839 160.559 196.945 160.236 196.916C159.809 196.876 159.379 196.884 158.953 196.939C158.168 197.038 157.409 197.298 156.722 197.703C156.034 198.108 155.43 198.651 154.946 199.3C154.458 199.947 154.098 200.687 153.888 201.479C153.677 202.27 153.62 203.097 153.719 203.912C153.918 205.556 154.737 207.051 155.996 208.069C157.255 209.087 158.852 209.545 160.436 209.343C161.222 209.244 161.98 208.984 162.668 208.578C163.356 208.173 163.96 207.63 164.444 206.981C164.933 206.335 165.293 205.595 165.504 204.804C165.714 204.012 165.771 203.185 165.671 202.371C165.536 201.249 165.112 200.186 164.443 199.295C164.243 199.03 164.153 198.693 164.192 198.359C164.232 198.024 164.397 197.72 164.653 197.512C164.908 197.305 165.233 197.211 165.555 197.252C165.877 197.293 166.17 197.464 166.37 197.73C167.314 198.982 167.912 200.478 168.099 202.056C168.336 203.995 167.94 205.96 166.972 207.636V207.636ZM149.371 196.689L149.377 196.681L149.371 196.689ZM147.114 204.151L147.129 204.144L147.114 204.151ZM156.437 189.868L156.441 189.861L156.437 189.868ZM158.703 189.992V189.996V189.992ZM152.378 213.787L152.385 213.782L152.378 213.787ZM161.823 216.041V216.045V216.041ZM168.237 211.949L168.242 211.94L168.237 211.949ZM168.686 211.349L169.64 210.08L168.302 207.946L168.584 207.31C169.024 206.318 169.306 205.258 169.419 204.172L169.489 203.475L171.691 202.356L171.499 200.758L169.102 200.231L168.867 199.573C168.503 198.549 167.98 197.593 167.319 196.744L166.894 196.197L167.689 193.789L166.464 192.8L164.409 194.189L163.796 193.895C162.84 193.438 161.819 193.145 160.773 193.028L160.102 192.955L159.022 190.67L157.484 190.869L156.977 193.358L156.342 193.601C155.355 193.98 154.434 194.523 153.615 195.208L153.09 195.649L150.77 194.824L149.817 196.095L151.156 198.228L150.872 198.865C150.431 199.856 150.149 200.916 150.039 202.002L149.967 202.699L147.765 203.82L147.957 205.416L150.354 205.943L150.589 206.6C150.954 207.624 151.477 208.58 152.137 209.43L152.562 209.977L151.767 212.385L152.992 213.375L155.047 211.985L155.66 212.279C156.615 212.737 157.637 213.029 158.683 213.144L159.354 213.219L160.433 215.503L161.972 215.305L162.48 212.817L163.112 212.573C164.1 212.195 165.021 211.652 165.84 210.964L166.364 210.525L168.686 211.348V211.349ZM172.115 210.897C172.252 210.658 172.322 210.385 172.317 210.107C172.312 209.829 172.232 209.558 172.086 209.325L171.077 207.716C171.391 206.888 171.619 206.028 171.759 205.15L173.42 204.305C173.687 204.169 173.907 203.95 174.049 203.678C174.19 203.406 174.246 203.095 174.209 202.788L173.837 199.692C173.801 199.386 173.673 199.1 173.471 198.873C173.27 198.647 173.006 198.491 172.715 198.427L170.906 198.03C170.565 197.214 170.141 196.437 169.64 195.715L170.238 193.896C170.335 193.604 170.341 193.288 170.256 192.992C170.171 192.697 169.999 192.436 169.764 192.247L167.395 190.332C167.16 190.143 166.874 190.034 166.577 190.021C166.28 190.008 165.986 190.091 165.737 190.259L164.186 191.307C163.388 190.979 162.559 190.741 161.713 190.596L160.901 188.875C160.77 188.597 160.559 188.368 160.297 188.221C160.035 188.074 159.735 188.015 159.439 188.054L156.453 188.438C156.159 188.478 155.885 188.611 155.667 188.82C155.449 189.028 155.299 189.302 155.238 189.603L154.856 191.48C154.069 191.836 153.322 192.277 152.625 192.797L150.872 192.173C150.591 192.075 150.287 192.069 150.002 192.158C149.718 192.246 149.466 192.424 149.283 192.667L147.442 195.121C147.259 195.365 147.154 195.662 147.14 195.971C147.127 196.28 147.207 196.585 147.368 196.845L148.378 198.457C148.063 199.284 147.834 200.145 147.696 201.023L146.043 201.864C145.774 201.998 145.552 202.217 145.409 202.49C145.266 202.763 145.209 203.075 145.245 203.383L145.615 206.477C145.652 206.783 145.78 207.071 145.981 207.298C146.183 207.526 146.448 207.682 146.739 207.746L148.548 208.143C148.89 208.959 149.315 209.735 149.816 210.458L149.216 212.277C149.12 212.569 149.115 212.885 149.2 213.181C149.285 213.476 149.457 213.737 149.691 213.926L152.059 215.841C152.294 216.031 152.579 216.14 152.877 216.153C153.174 216.166 153.468 216.082 153.717 215.914L155.27 214.866C156.067 215.193 156.896 215.43 157.742 215.574L158.556 217.296C158.686 217.574 158.897 217.803 159.159 217.951C159.421 218.098 159.721 218.156 160.017 218.117L162.996 217.733C163.291 217.695 163.568 217.561 163.787 217.352C164.006 217.143 164.157 216.869 164.219 216.567L164.601 214.689C165.387 214.334 166.135 213.893 166.831 213.374L168.582 213.996C168.863 214.096 169.168 214.103 169.453 214.014C169.738 213.926 169.989 213.747 170.171 213.504L172.021 211.038C172.055 210.993 172.086 210.946 172.114 210.897L172.115 210.897Z" fill="#AEC2E4"/>
<path fill-rule="evenodd" clip-rule="evenodd" d="M174.227 337.216C169.081 337.216 164.909 331.449 164.909 326.107C164.909 320.766 169.081 316.977 174.227 316.977C179.372 316.977 183.544 320.766 183.544 326.107C183.544 331.449 179.373 337.216 174.227 337.216Z" fill="url(#paint29_linear_11_2092)"/>
<path fill-rule="evenodd" clip-rule="evenodd" d="M162.665 357.778H185.411C186.578 357.778 187.715 357.394 188.657 356.68C189.6 355.966 190.3 354.96 190.655 353.806L191.88 349.834C192.315 348.434 192.212 346.913 191.593 345.59C190.974 344.266 189.886 343.242 188.557 342.73C184.293 341.109 179.786 340.285 175.246 340.296C170.028 340.355 164.854 341.286 159.922 343.055C158.599 343.523 157.499 344.498 156.846 345.781C156.193 347.063 156.037 348.556 156.409 349.954L157.352 353.56C157.668 354.771 158.36 355.841 159.32 356.603C160.281 357.365 161.456 357.778 162.665 357.778V357.778Z" fill="url(#paint30_linear_11_2092)"/>
<path fill-rule="evenodd" clip-rule="evenodd" d="M171.463 454.859C171.267 454.859 171.071 454.838 170.88 454.795C146.859 449.461 121.788 433.189 100.29 408.975C78.6643 384.617 63.4135 355.25 57.348 326.287C57.1918 325.54 57.3277 324.76 57.7259 324.117C58.1241 323.474 58.7519 323.021 59.4714 322.859C59.8277 322.778 60.1959 322.771 60.5549 322.837C60.9139 322.904 61.2566 323.044 61.5634 323.249C61.8702 323.454 62.1352 323.719 62.343 324.03C62.5508 324.341 62.6974 324.692 62.7745 325.062C68.6335 353.039 83.4066 381.453 104.374 405.069C125.101 428.415 149.134 444.073 172.041 449.158C172.761 449.318 173.39 449.768 173.791 450.409C174.191 451.05 174.33 451.83 174.176 452.578C174.043 453.223 173.701 453.801 173.208 454.216C172.714 454.631 172.098 454.858 171.463 454.859V454.859Z" fill="white"/>
<path fill-rule="evenodd" clip-rule="evenodd" d="M53.3571 351.791C53.1873 351.791 53.0179 351.775 52.8507 351.744C52.1264 351.605 51.4849 351.174 51.0672 350.544C50.6496 349.914 50.49 349.138 50.6236 348.387L56.0354 317.939C56.1414 317.345 56.4245 316.801 56.8446 316.383C57.2648 315.965 57.8009 315.694 58.3771 315.61C58.9535 315.526 59.5406 315.632 60.0559 315.912C60.5712 316.193 60.9888 316.634 61.25 317.174C64.5755 324.132 69.5958 330.067 75.813 334.39C76.1153 334.602 76.3745 334.873 76.5758 335.189C76.7771 335.505 76.9165 335.858 76.986 336.23C77.0556 336.601 77.0539 336.984 76.9812 337.355C76.9085 337.725 76.766 338.078 76.562 338.392C76.1498 339.025 75.5123 339.462 74.7897 339.608C74.067 339.753 73.3182 339.596 72.7076 339.169C67.8186 335.768 63.5682 331.47 60.1652 326.486L56.0866 349.431C55.969 350.093 55.6316 350.692 55.133 351.123C54.6345 351.555 54.0061 351.791 53.3571 351.791V351.791Z" fill="white"/>
<path fill-rule="evenodd" clip-rule="evenodd" d="M438.84 138.686C438.346 138.686 437.86 138.55 437.434 138.29C437.008 138.031 436.656 137.658 436.414 137.21C422.941 112.23 400.816 89.535 374.116 73.3051C347.722 57.261 320.338 49.5744 296.992 51.6508C296.629 51.6832 296.263 51.641 295.916 51.5266C295.568 51.4122 295.246 51.2279 294.967 50.9841C294.688 50.7404 294.458 50.442 294.29 50.106C294.122 49.77 294.02 49.403 293.989 49.0259C293.926 48.2643 294.157 47.508 294.632 46.9234C295.106 46.3387 295.785 45.9736 296.519 45.9084C320.987 43.7229 349.546 51.6888 376.922 68.3321C404.459 85.0726 427.308 108.534 441.259 134.396C441.619 135.063 441.709 135.851 441.509 136.586C441.309 137.322 440.836 137.945 440.193 138.318C439.78 138.56 439.314 138.686 438.84 138.686V138.686Z" fill="white"/>
<path fill-rule="evenodd" clip-rule="evenodd" d="M442.106 145.188C441.73 145.189 441.358 145.109 441.013 144.955C440.667 144.801 440.355 144.576 440.097 144.292C434.957 138.646 428.485 134.492 421.322 132.242C420.618 132.019 420.029 131.514 419.683 130.84C419.338 130.165 419.264 129.376 419.48 128.645C419.586 128.283 419.76 127.946 419.992 127.654C420.224 127.362 420.509 127.12 420.831 126.942C421.153 126.765 421.506 126.655 421.869 126.619C422.232 126.583 422.598 126.621 422.947 126.732C428.58 128.503 433.856 131.324 438.515 135.058L435.957 111.876C435.874 111.116 436.084 110.354 436.542 109.755C437.001 109.157 437.669 108.772 438.401 108.685C439.132 108.601 439.866 108.82 440.442 109.295C441.018 109.77 441.389 110.463 441.475 111.221L444.866 141.979C444.932 142.58 444.815 143.187 444.531 143.714C444.247 144.242 443.81 144.663 443.282 144.919C442.914 145.097 442.513 145.189 442.106 145.188V145.188Z" fill="white"/>
<defs>
<linearGradient id="paint0_linear_11_2092" x1="446.801" y1="427.008" x2="194.134" y2="214.33" gradientUnits="userSpaceOnUse">
<stop stop-color="#D1D9EF"/>
<stop offset="1" stop-color="#E5E9F6"/>
</linearGradient>
<linearGradient id="paint1_linear_11_2092" x1="299.696" y1="446.181" x2="258.149" y2="125.678" gradientUnits="userSpaceOnUse">
<stop stop-color="#000D29"/>
<stop offset="1" stop-color="#051D63"/>
</linearGradient>
<linearGradient id="paint2_linear_11_2092" x1="289.782" y1="175.68" x2="87.7537" y2="160.69" gradientUnits="userSpaceOnUse">
<stop stop-color="#314B9A"/>
<stop offset="1" stop-color="#264194"/>
</linearGradient>
<linearGradient id="paint3_linear_11_2092" x1="151.149" y1="349.08" x2="298.825" y2="262.439" gradientUnits="userSpaceOnUse">
<stop stop-color="#DA201E"/>
<stop offset="1" stop-color="#E13F3F"/>
</linearGradient>
<linearGradient id="paint4_linear_11_2092" x1="481.954" y1="219.615" x2="232.275" y2="395.933" gradientUnits="userSpaceOnUse">
<stop stop-color="#314B9A"/>
<stop offset="1" stop-color="#264194"/>
</linearGradient>
<linearGradient id="paint5_linear_11_2092" x1="244.985" y1="169.052" x2="459.672" y2="168.35" gradientUnits="userSpaceOnUse">
<stop stop-color="#DA201E"/>
<stop offset="1" stop-color="#E13F3F"/>
</linearGradient>
<linearGradient id="paint6_linear_11_2092" x1="192.703" y1="209.212" x2="247.88" y2="312.249" gradientUnits="userSpaceOnUse">
<stop stop-color="#314B9A"/>
<stop offset="1" stop-color="#264194"/>
</linearGradient>
<linearGradient id="paint7_linear_11_2092" x1="280.785" y1="254.196" x2="160.29" y2="361.555" gradientUnits="userSpaceOnUse">
<stop stop-color="#F07677"/>
<stop offset="1" stop-color="#EC4F47"/>
</linearGradient>
<linearGradient id="paint8_linear_11_2092" x1="355.089" y1="337.972" x2="350.206" y2="208.201" gradientUnits="userSpaceOnUse">
<stop stop-color="#314B9A"/>
<stop offset="1" stop-color="#264194"/>
</linearGradient>
<linearGradient id="paint9_linear_11_2092" x1="427.66" y1="99.292" x2="255.639" y2="248.205" gradientUnits="userSpaceOnUse">
<stop stop-color="#F07677"/>
<stop offset="1" stop-color="#EC4F47"/>
</linearGradient>
<linearGradient id="paint10_linear_11_2092" x1="450.306" y1="78.264" x2="272.365" y2="228.848" gradientUnits="userSpaceOnUse">
<stop stop-color="#FDE9E8"/>
<stop offset="1" stop-color="#FDE4E3"/>
</linearGradient>
<linearGradient id="paint11_linear_11_2092" x1="253.315" y1="263.247" x2="128.801" y2="373.497" gradientUnits="userSpaceOnUse">
<stop stop-color="#FDE9E8"/>
<stop offset="1" stop-color="#FDE4E3"/>
</linearGradient>
<linearGradient id="paint12_linear_11_2092" x1="325.183" y1="271.932" x2="369.446" y2="315.325" gradientUnits="userSpaceOnUse">
<stop stop-color="#F5A7A9"/>
<stop offset="1" stop-color="#F07677"/>
</linearGradient>
<linearGradient id="paint13_linear_11_2092" x1="319.49" y1="274.146" x2="364.602" y2="315.906" gradientUnits="userSpaceOnUse">
<stop stop-color="#F5A7A9"/>
<stop offset="1" stop-color="#F07677"/>
</linearGradient>
<linearGradient id="paint14_linear_11_2092" x1="310.315" y1="255.891" x2="303.105" y2="255.891" gradientUnits="userSpaceOnUse">
<stop stop-color="#F5A7A9"/>
<stop offset="1" stop-color="#F07677"/>
</linearGradient>
<linearGradient id="paint15_linear_11_2092" x1="456.138" y1="73.0511" x2="243.145" y2="157.544" gradientUnits="userSpaceOnUse">
<stop stop-color="#FDE9E8"/>
<stop offset="1" stop-color="#FDE4E3"/>
</linearGradient>
<linearGradient id="paint16_linear_11_2092" x1="361.615" y1="251.092" x2="381.709" y2="273.835" gradientUnits="userSpaceOnUse">
<stop stop-color="#000D29"/>
<stop offset="1" stop-color="#051D63"/>
</linearGradient>
<linearGradient id="paint17_linear_11_2092" x1="406.994" y1="242.383" x2="367.272" y2="277.754" gradientUnits="userSpaceOnUse">
<stop stop-color="#F07677"/>
<stop offset="1" stop-color="#EC4F47"/>
</linearGradient>
<linearGradient id="paint18_linear_11_2092" x1="359.73" y1="320.163" x2="368.407" y2="300.702" gradientUnits="userSpaceOnUse">
<stop stop-color="#F5A7A9"/>
<stop offset="1" stop-color="#F07677"/>
</linearGradient>
<linearGradient id="paint19_linear_11_2092" x1="372.938" y1="337.068" x2="385.771" y2="337.068" gradientUnits="userSpaceOnUse">
<stop stop-color="#F5A7A9"/>
<stop offset="1" stop-color="#F07677"/>
</linearGradient>
<linearGradient id="paint20_linear_11_2092" x1="354.496" y1="291.231" x2="373.602" y2="249.821" gradientUnits="userSpaceOnUse">
<stop stop-color="#F5A7A9"/>
<stop offset="1" stop-color="#F07677"/>
</linearGradient>
<linearGradient id="paint21_linear_11_2092" x1="354.588" y1="253.206" x2="372.977" y2="275.246" gradientUnits="userSpaceOnUse">
<stop stop-color="#000D29"/>
<stop offset="1" stop-color="#051D63"/>
</linearGradient>
<linearGradient id="paint22_linear_11_2092" x1="362.11" y1="292.105" x2="384.958" y2="254.495" gradientUnits="userSpaceOnUse">
<stop stop-color="#F5A7A9"/>
<stop offset="1" stop-color="#F07677"/>
</linearGradient>
<linearGradient id="paint23_linear_11_2092" x1="270.336" y1="253.756" x2="270.307" y2="485.083" gradientUnits="userSpaceOnUse">
<stop stop-color="#000D29"/>
<stop offset="1" stop-color="#051D63"/>
</linearGradient>
<linearGradient id="paint24_linear_11_2092" x1="406.192" y1="505.849" x2="431.566" y2="456.144" gradientUnits="userSpaceOnUse">
<stop stop-color="#314B9A"/>
<stop offset="1" stop-color="#264194"/>
</linearGradient>
<linearGradient id="paint25_linear_11_2092" x1="361.177" y1="536.455" x2="467.966" y2="471.878" gradientUnits="userSpaceOnUse">
<stop stop-color="#F5A7A9"/>
<stop offset="1" stop-color="#F07677"/>
</linearGradient>
<linearGradient id="paint26_linear_11_2092" x1="376.142" y1="468.03" x2="361.184" y2="518.392" gradientUnits="userSpaceOnUse">
<stop stop-color="#314B9A"/>
<stop offset="1" stop-color="#264194"/>
</linearGradient>
<linearGradient id="paint27_linear_11_2092" x1="397.221" y1="531.057" x2="454.631" y2="354.728" gradientUnits="userSpaceOnUse">
<stop stop-color="#F5A7A9"/>
<stop offset="1" stop-color="#F07677"/>
</linearGradient>
<linearGradient id="paint28_linear_11_2092" x1="387.049" y1="362.98" x2="338.395" y2="393.855" gradientUnits="userSpaceOnUse">
<stop stop-color="#000D29"/>
<stop offset="1" stop-color="#051D63"/>
</linearGradient>
<linearGradient id="paint29_linear_11_2092" x1="249.306" y1="255.108" x2="120.885" y2="358.89" gradientUnits="userSpaceOnUse">
<stop stop-color="#FDE9E8"/>
<stop offset="1" stop-color="#FDE4E3"/>
</linearGradient>
<linearGradient id="paint30_linear_11_2092" x1="267.571" y1="257.661" x2="229.742" y2="415.069" gradientUnits="userSpaceOnUse">
<stop stop-color="#FDE9E8"/>
<stop offset="1" stop-color="#FDE4E3"/>
</linearGradient>
</defs>
</svg>
